<svg xmlns="http://www.w3.org/2000/svg" width="574" height="514" viewBox="0 0 573 514"><defs><clipPath id="a"><path d="M567 137h5.492v51H567Zm0 0"/></clipPath><clipPath id="b"><path d="M170 468h57v45.742h-57Zm0 0"/></clipPath><clipPath id="c"><path d="M98 453h82v60.742H98Zm0 0"/></clipPath><clipPath id="d"><path d="M123 465h46v48.742h-46Zm0 0"/></clipPath></defs><path style="stroke:none;fill-rule:nonzero;fill:#53b266;fill-opacity:1" d="m62.887 243.18.644-160.032s-.34-14.918 5.942-18.414c6.27-3.511 6.847-4.562 29.925-4.562 23.079 0 197.434.297 197.434.297l74.852-.696 9.293-46.918S382.328.86 394.867.871c12.54.012 110.832 0 110.832 0l13.457.484 6.649 2.555s7.668 4.102 9.82 8.945c2.152 4.84 3.754 11.04 1.613 18.641-2.14 7.598-5.246 28.817-5.246 28.817s10.29-.883 14.184 4.703 5.554 12.3 5.59 18.12c.035 5.821 1.187 306.958 1.187 306.958s1.492 13.246-23.797 13.281c-25.293.047-306.351.73-306.351.73"/><path style="stroke:none;fill-rule:nonzero;fill:#9be887;fill-opacity:1" d="M379.563 163.848c.32-.34 118.421.39 118.421.39s14.903 1.176 17.645-14.93c2.738-16.105 19.996-109.578 19.996-109.578s4.316-15.707 1.176-23.175c-3.14-7.457-5.094-9.817-12.938-12.961l-4.707-2.25-15.09-.106-73.32-.199H397.22S381.14-1.52 379.188 19.891l-22.551 117.035s-5.094 8.836 2.554 14.93c7.645 6.09 10.786 10.011 13.914 10.804 3.141.79 6.47 1.176 6.47 1.176Zm0 0"/><path style="stroke:none;fill-rule:nonzero;fill:#000;fill-opacity:1" d="M381.352 9.684c-4.633 14.293-7 29.586-9.844 44.304-4.297 22.153-8.707 44.29-12.473 66.547-1.023 6.02-1.976 12.055-3.023 18.063-.094.554.695.789.847.234 4.036-14.527 6.637-29.61 9.473-44.394 4.234-22.153 8.914-44.258 12.645-66.5 1-6 1.574-12.16 3.07-18.063.117-.45-.555-.625-.695-.191Zm0 0"/><path style="stroke:none;fill-rule:nonzero;fill:#000;fill-opacity:1" d="M357.977 130.316c-1.504 5.797-6.844 18.145 1.332 21.512 2.492 1.027 5.445.957 8.117.992 8.785.13 17.586.059 26.37.059 26.173 0 52.349.578 78.509.566 4.836 0 9.691.176 14.504-.187 2.187-.168 4.59-.696 6.789-.567.351.024.351-.53 0-.554-39.102-2.367-78.508-.977-117.727-1.414-3.258-.036-6.52-.024-9.766-.118-.632-.023-1.28 0-1.918-.035-3.773-.222-2.41.13-5.03-3.097-2.462-3.02-2.262-2.973-1.942-6.188.351-3.652.62-7.293.867-10.957 0-.058-.09-.07-.105-.012Zm0 0"/><path style="stroke:none;fill-rule:nonzero;fill:#000;fill-opacity:1" d="M507.266 120.629c-.883 4.137-1.989 8.18-2.848 12.336-.86 4.16-1.363 10.062-3.516 13.777-2.156 3.711-10.789 4.156-15.187 4.262-5 .121-10.094-.895-15.059-.258-.844.106-1.21 1.39-.222 1.625 6.597 1.543 13.976.356 20.714.684 3.567.175 7.493.578 10.047-2.274 2.743-3.062 3.282-8.222 4.164-12.054 1.399-6.137 1.954-11.805 2.13-18.051 0-.117-.188-.153-.212-.024Zm0 0"/><path style="stroke:none;fill-rule:nonzero;fill:#000;fill-opacity:1" d="M527.531 12.809c-6.363 22.066-10.316 44.808-14.422 67.418-4.105 22.613-8.668 44.515-11.054 66.937-.035.379.55.438.644.082 5.977-21.844 9.211-44.691 13.328-66.95 4.118-22.257 7.293-45.112 11.825-67.405.046-.211-.262-.293-.32-.082ZM379.598 14.918c2-4.68 4.199-9.273 9.058-11.488 3.824-1.758 8.2-1.723 12.328-1.735 1.965 0 3.93 0 5.895.012 8.258.023 16.516.273 24.773.285 21.29.024 42.618-.812 63.871-.297 5.989.157 12.516 1.215 18.457.157.602-.11.602-1.122 0-1.227-5.316-.953-11.222-.2-16.574 0-10.668.41-21.36-.438-32.008-.496-20.101-.117-40.195-.035-60.296-.082-3.907 0-7.93-.234-11.79.39-8.359 1.329-11.632 6.833-13.82 14.446-.012.058.07.105.106.047Zm0 0"/><path style="stroke:none;fill-rule:nonzero;fill:#000;fill-opacity:1" d="m511.195 2.344 1.82-.281c.07 0 .036-.118-.023-.106l-1.824.281c-.07 0-.035.117.027.106Zm0 0"/><path style="stroke:none;fill-rule:nonzero;fill:#000;fill-opacity:1" d="M507.3 1.379c6.895.836 18.54-.625 18.575 9.344.012 3.382-1.45 6.586-1.508 9.91-.047 2.851-.176 5.3-.949 8.152-1.52 5.633-2.813 11.238-3.754 17-.883 5.375-2.871 10.711-2.965 16.156 0 .602.778.625.977.13 1.574-4.02 1.683-8.317 2.562-12.524.883-4.207 1.953-8.285 2.707-12.492.801-4.453.871-9.45 2.446-13.617 1.273-3.372 2.199-6.954 2.601-10.547.399-3.594-.07-7.883-3.117-10.297-4.352-3.442-12.527-1.63-17.574-1.297-.035 0-.035.058 0 .058Zm0 0"/><path style="stroke:none;fill-rule:nonzero;fill:#000;fill-opacity:1" d="M520.559 2.238c10.832 2.653 17.75 14.02 16.148 24.73-.316 2.169-.797 4.313-1.187 6.47-1.72 9.32-3.41 18.64-5.118 27.96-4.363 23.848-8.902 47.649-12.996 71.543-1.152 6.739-1.86 13.575-3.12 20.29-.188 1.015 1.355 1.437 1.542.425 7.633-40.816 15.434-81.605 22.867-122.48.684-3.735 1.414-7.352.848-11.18-1.316-8.945-10.152-16.64-18.879-18.078-.203-.035-.297.273-.082.32ZM357.25 147.34c-.035-.059.035-.188.047-.246l.058-.227c.06-.222-.332-.222-.27 0l.06.227s.07.187.046.246c-.023.058.082.058.047 0ZM356.438 146.105c.07 0 .07-.105 0-.105s-.07.105 0 .105Zm0 0"/><path style="stroke:none;fill-rule:nonzero;fill:#000;fill-opacity:1" d="M355.145 144.914c-.52 3.004.234 4.512 2.199 6.785 3.281 3.793 7.656 8.531 12.078 11.016 3.8 2.133 8.305 2.11 12.555 2.156 8.082.098 16.16.035 24.23.035 24.914 0 49.852.239 74.754.074 7.07-.046 14.41-.722 21.422-.507.672.023.672-1.028 0-1.051-37.7-1.152-75.602-.883-113.375-1.152-2.703-.024-5.41 0-8.102-.07-3.39-.083-7.082-.118-10.105-1.84-2.473-1.403-4.531-3.829-6.555-5.786-2.328-2.25-7.527-6.078-7.797-9.484-.058-.695-1.164-.965-1.293-.176Zm0 0"/><path style="stroke:none;fill-rule:nonzero;fill:#000;fill-opacity:1" d="M486.61 164.273c6.199 1.555 17.1 2.625 22.574-1.746 2.398-1.918 4.703-4.77 5.996-7.55 1.976-4.243.636-8.11 1.742-12.516.07-.293-.375-.504-.504-.211-2.332 5.352-1.766 11.418-5.566 16.297-5.692 7.316-16.02 5.101-24.22 5.558-.093 0-.116.145-.023.168ZM83.531 60.95c33.09 1.862 66.485.26 99.621 0 49.02-.388 97.989.214 146.996.25 13.48 0 26.946-.356 40.407-.509 1.058 0 1.07-1.671 0-1.66-33.2.364-66.418-.156-99.625.48-48.993.946-98-.456-146.993-.363-13.492.024-26.96-.261-40.406.79-.636.046-.648.953 0 .988Zm0 0"/><path style="stroke:none;fill-rule:nonzero;fill:#000;fill-opacity:1" d="M95.59 60.527c-9.578-2.355-20.246-3.746-27.985 3.97-5.484 5.456-5.414 13.386-5.472 20.608-.07 10.403-.024 20.81 0 31.211.058 30.848.012 61.672-.504 92.504-.188 11.407-.977 22.965-.332 34.36.121 2.074 3.047 2.05 3.203 0 1.68-22.07-.285-44.715-.262-66.844.035-26.875.297-53.75.578-80.625.047-4.043.059-8.074.118-12.113.093-7.578.683-15.235 7.93-19.477 6.445-3.781 15.48-3.441 22.726-3.547.035 0 .035-.047 0-.058Zm0 0"/><path style="stroke:none;fill-rule:nonzero;fill:#000;fill-opacity:1" d="M63.887 83.008c10.047 1.828 20.61 1.191 30.761 1.203 23.832.023 47.665.012 71.497 0 53.98-.012 107.96-.023 161.93-.082 12.718-.012 25.94-1.617 38.62-.637.668.047.668-1.004 0-1.05-10.422-.801-21.02-.626-31.468-.825-23.75-.433-47.547-.094-71.309-.07-53.793.047-107.586.117-161.367.117-9.114 0-18.219-.012-27.336.094-3.778.047-7.504.777-11.281.875-.211 0-.27.34-.047.375ZM532.883 60.242c6.87.887 13.86 4.95 16.187 11.844 1.282 3.77 1.223 7.918 1.258 11.852.024 1.933.024 3.867.035 5.796.035 6.918.063 13.825.098 20.739.082 22.386.176 44.761.293 67.136.27 52.551.316 105.09-.012 157.637-.094 15.274-.07 30.52.07 45.777.024 2.063 3.223 2.063 3.2 0-.375-38.636-.719-77.304-.824-115.953-.141-51.793.164-103.601.082-155.398 0-7.54-.024-15.094-.047-22.633-.024-4.328.14-8.707-.68-12.96-1.86-9.63-10.211-14.27-19.668-13.907-.04 0-.04.047 0 .058ZM82.953 67.797c-1.726-.942-3.281-1.274-4.914.035-1.45 1.156-2.156 2.91-1.941 4.75.468 4.23 5.14 5.797 8.703 4.3 3.566-1.495 4.988-5.964 2.648-9.155-1.05-1.426-2.824-2.204-4.59-2.098-1.765.105-4.175 1.46-3.964 3.43.105.988.894 1.765 1.953 1.496 1.308-.344 2.543-2.063 4.011-.825 1.625 1.368.414 3.817-1.152 4.582-1.824.895-4.59.153-4.684-2.19-.07-1.602 2.133-3.25 3.625-3.24.567 0 .801-.8.293-1.085ZM100.469 67.96c-1.918-.456-3.528-.741-5.328.415-1.434.906-2.27 2.45-2.211 4.148.129 3.735 3.882 5.997 7.316 5.137 3.035-.765 7.164-4.43 5-7.812-1.93-3.016-7.824-3.477-10.246-.993-.613.637-.129 1.594.684 1.653 2.246.176 4.445-1.156 6.644.07 2.836 1.567-.894 4.43-2.707 4.828-1.984.438-4.504-1-4.152-3.32.203-1.344 1.508-1.898 2.66-2.25.848-.262 1.52-.66 2.351-.957.415-.14.485-.79 0-.906ZM117.352 67.527c-3.66-1.425-7.059 2.145-6.13 5.82 1.024 4.016 5.434 5.665 9.15 4.454 3.718-1.215 6.151-5.16 3.425-8.649-2.188-2.78-7.953-4.242-10.164-.707-.305.496-.223 1.274.21 1.672 1.106 1.016 2.177-.293 3.27-.578 2.176-.539 6.14 1.547 4.707 4.113-1.316 2.391-5.187 2.922-7.093 1-2.235-2.226-.696-5.972 2.468-6.007.684 0 .743-.907.157-1.141ZM80.672 117.07c2.848-.422 6.058.145 8.918.2 6.965.168 13.914.097 20.879.074 22.195-.074 44.394-.035 66.59 0 49.23.094 98.472.222 147.71.422 11.93.046 24.036-.72 35.95-.223.777.035.777-1.18 0-1.215-31.95-1.332-64.004-.8-95.977-.906-49.687-.152-99.387-.223-149.074-.012-8.293.035-16.598 0-24.89.34-3.258.145-7.06-.047-10.247.781-.351.094-.199.574.14.528Zm0 0"/><path style="stroke:none;fill-rule:nonzero;fill:#000;fill-opacity:1" d="M527.793 83.563c3.012 1.484 6.55 1.32 9.855 1.472 4.41.2 8.86.305 13.27.293 1.684 0 1.648-2.473 0-2.59-4.41-.332-8.86-.52-13.27-.578-3.293-.035-6.796-.355-9.855.965-.168.07-.152.355 0 .426ZM531.098 60.738c2.953 1.309 6.562.848 9.703 1.934 2.449.836 4.222 2.308 5.613 4.5.86 1.355 1.328 2.758 2.48 3.875.41.402 1.282.144 1.223-.504-.351-3.676-3.644-7.66-6.953-9.203-2.879-1.356-9.3-3.383-12.066-1.262-.2.152-.293.531 0 .672ZM521.355 118.402c2.813 1.203 6.332.485 9.352.532 3.238.046 6.684.695 9.871.187.399-.058.328-.637 0-.742-3.07-.977-6.656-.754-9.871-.79-2.984-.034-6.61-.612-9.352.673-.046.023-.058.117 0 .14ZM222.594 402.41s.023-.035 0-.035c-.024 0-.024.035 0 .035ZM176.46 411.258h-.39s-.035.047 0 .047h.39s.036-.047 0-.047ZM169.871 251.535c.285 0 .285-.45 0-.45-.281 0-.281.45 0 .45ZM552.316 389.719c-2.562 4.832-4.656 9.344-10.28 11.113-5.329 1.672-10.973 1.023-16.466 1.023-2.105 0-4.199-.07-6.308-.105-5.317-.105-10.633-.059-15.95-.07-22.23-.059-44.464-.047-66.695-.047-29.48 0-58.96.023-88.437.047-26.961.023-53.899 1.011-80.86 1-14.375 0-29.34.472-43.441.484-1.25 0-1.25 1.93 0 1.93 38.898-.012 78.648.719 117.809.672 53.57-.059 107.136-.672 160.695-.86 5.883-.023 11.762-.117 17.644-.023 13.047.21 31.504 2.25 33.668-14.774.094-.754-1.058-.992-1.39-.379ZM15.434 122.469c-1.293 2.097-1.106 4.84-1.2 7.246-.105 2.758-.21 5.476.766 8.094.258.695 1.434 1.109 1.809.234 1.082-2.496 1.238-5.066 1.273-7.762.035-2.699.434-5.48-.836-7.8-.39-.72-1.426-.66-1.824 0Zm0 0"/><path style="stroke:none;fill-rule:nonzero;fill:#000;fill-opacity:1" d="M9.328 131.176c2.375.59 4.906.328 7.317.176 2.035-.13 4.421.28 5.94-1.32a.9.9 0 0 0 0-1.247c-1.636-1.71-4.292-1.097-6.42-.851-2.427.285-4.977.824-6.954 2.312-.328.246-.34.813.117.93ZM563.316 137.02c-1.859 5.382-1.789 11.5-2 17.132a424.428 424.428 0 0 0-.328 19.309c.07 12.125.586 24.496 2.657 36.457.109.602 1.035.45 1.035-.14.011-12.481-.692-24.97-.75-37.446-.024-6.059.082-12.125.304-18.18.2-5.632.977-11.57-.058-17.132-.082-.461-.719-.38-.848 0Zm0 0"/><g clip-path="url(#a)"><path style="stroke:none;fill-rule:nonzero;fill:#000;fill-opacity:1" d="M571.785 138.137c-2.965 6.695-1.976 14.445-2.187 21.636-.27 9.059-1.813 18.157-1.61 27.204.012.707 1 .835 1.211.164 4.953-15.797 2.387-32.625 3.293-48.801.024-.356-.539-.531-.695-.188Zm0 0"/></g><path style="stroke:none;fill-rule:nonzero;fill:#000;fill-opacity:1" d="M558.434 31.246c-1.305 4.29-1.551 8.531.543 12.656.48.953 2.128.766 2.34-.308.847-4.285.058-8.235-1.094-12.348-.246-.894-1.52-.871-1.79 0Zm0 0"/><path style="stroke:none;fill-rule:nonzero;fill:#000;fill-opacity:1" d="M553.434 39.14c3.976.579 7.976.368 11.976-.035 1.13-.117 1.563-1.824.281-2.12-4.105-.954-8.351-.977-12.257.671-.598.25-.856 1.367 0 1.496ZM73.414 41.238C62.04 39.508 49.512 42.84 44.828 54.48c-2.48 6.165-2.055 12.973-1.785 19.465.387 9.215-.848 18.23-.871 27.395 0 1.097 1.719 1.39 1.953.262 2.61-12.446 1.012-24.98 2.012-37.48.586-7.34 3.164-13.68 10.093-17.099 5.329-2.625 11.586-3.699 17.184-5.714.035-.012.047-.082 0-.082Zm0 0"/><path style="stroke:none;fill-rule:nonzero;fill:#000;fill-opacity:1" d="M61.203 31.012c-8.691.105-17.879 2.191-24.183 8.789-5.848 6.129-7.094 18.687-4.93 26.488.27.965 1.8.8 1.777-.238-.222-9.235-.918-20.938 7.844-26.555 3.059-1.969 6.648-3.078 10.094-4.184 3.449-1.109 6.187-2.523 9.468-4.019.145-.07.07-.293-.082-.281ZM83.18 171.328c-.438 3.961-.227 7.918-.532 11.879-.07.824.766 1.555 1.543 1.543 52.356-.59 104.692-.578 157.051-1.25 7.82-.105 15.645-.188 23.442-.492.367-.012.367-.59 0-.578-20.528.824-41.395-.461-61.946-.543-31.699-.13-63.39-.422-95.105-.367-7.774.015-15.692-.399-23.442.144l1.54 1.543c.082-3.984-.481-7.906-.528-11.879-.012-1.34-1.894-1.27-2.035 0Zm0 0"/><path style="stroke:none;fill-rule:nonzero;fill:#000;fill-opacity:1" d="M265.59 182.145c.433-3.958.223-7.918.527-11.875.07-.825-.762-1.555-1.539-1.543-52.36.59-104.691.578-157.05 1.25-7.825.105-15.645.187-23.446.492-.363.011-.363.59 0 .578 20.527-.824 41.395.46 61.945.543 31.703.129 63.395.422 95.106.363 7.777-.012 15.691.402 23.445-.14l-1.543-1.543c-.082 3.984.485 7.906.531 11.875.012 1.343 1.895 1.273 2.036 0ZM85.883 202.777s.058-.093 0-.093c-.059 0-.059.093 0 .093Zm0 0"/><path style="stroke:none;fill-rule:nonzero;fill:#000;fill-opacity:1" d="M84.094 202.719a92.52 92.52 0 0 0 .355 12.265c.07.778.645 1.625 1.551 1.555 16.703-1.32 33.75-.719 50.477-.648 25.457.105 50.898-.036 76.355.14 6.492.047 13.668-.742 20.09-.117.906.082.894-1.332 0-1.414-15.89-1.543-33.465-.941-49.875-1-25.645-.094-51.297.328-76.942-.023-6.671-.094-13.433-.52-20.105-.036l1.555 1.555a90.537 90.537 0 0 1-.274-12.266c.098-2.05-3.094-2.05-3.176 0ZM232.84 214.418s.058-.094 0-.094c-.059 0-.059.094 0 .094Zm0 0"/><path style="stroke:none;fill-rule:nonzero;fill:#000;fill-opacity:1" d="M234.629 214.383a93.187 93.187 0 0 0-.352-12.266c-.07-.777-.648-1.625-1.554-1.554-16.703 1.32-33.746.718-50.477.648-25.453-.106-50.898.035-76.351-.14-6.497-.048-13.672.742-20.094.117-.906-.083-.895 1.332 0 1.414 15.89 1.543 33.469.941 49.875 1 25.644.093 51.3-.329 76.945.023 6.668.094 13.434.52 20.102.035l-1.551-1.555c.363 4.102.457 8.153.27 12.266-.094 2.05 3.093 2.05 3.175 0ZM223.453 359.684c9.164-1.543 21.504-.575 31.422-.66 22.64-.2 45.297-.247 67.941-.329 51.5-.187 102.989-.34 154.489-.34 14.078 0 28.183-.32 42.254-.32 1.105 0 1.105-1.719 0-1.719-35.196 0-70.426-.402-105.637-.613-51.074-.305-102.172-.258-153.25.188-8.785.07-17.574.152-26.348.343-3.836.082-7.883-.132-11.672.516-1.925.332-1.105 3.266.813 2.945ZM236.758 364.258c-.211.941 0 1.742.187 2.672.188.886.38 1.757 1 2.43.625.671 1.72.292 1.977-.52.258-.813.047-1.707-.14-2.508-.188-.8-.305-1.664-.848-2.36-.563-.742-1.93-.824-2.176.286ZM323.3 363.75c-.046 1.25-.433 2.734-.058 3.95.27.87 1.504 1.093 1.977.257.824-1.46.164-3.289-.73-4.523-.364-.508-1.165-.356-1.188.316ZM414.277 363.41c.012.742.293 1.34.434 2.074.14.73.176 1.399.52 2.036.34.636 1.292.601 1.656 0 .883-1.461.105-3.98-1.246-4.887-.579-.39-1.375.129-1.364.777ZM506.324 363.469c-1.058 1.34-.988 3.605-.21 5.101.503.977 2.07.977 2.585 0 .778-1.484.848-3.746-.21-5.101-.47-.602-1.684-.59-2.153 0ZM471.715 205.238c4.105-.023 11.422-1.07 15.305.461 1.21.473.175-1.508.882.778.707 2.285.223 5.597.27 7.988.187 9.555.2 19.125.308 28.68.27 24.21.153 48.449.036 72.687-.051 9.07-.106 18.145-.098 27.215 0 1.473 2.297 1.484 2.297 0 .058-40.649 1.223-81.32.644-121.961-.082-5.57.368-11.629-.691-17.14-.129-.684-.836-1.075-1.461-1.122a139.752 139.752 0 0 0-17.492-.152c-1.633.082-1.656 2.566 0 2.566Zm0 0"/><path style="stroke:none;fill-rule:nonzero;fill:#000;fill-opacity:1" d="M488.113 341.668c-4.105.027-11.422 1.074-15.304-.457-1.211-.473-.176 1.508-.88-.777-.706-2.286-.226-5.598-.273-7.989-.187-9.558-.199-19.125-.304-28.68-.27-24.214-.153-48.449-.036-72.687.047-9.07.106-18.144.094-27.215 0-1.476-2.293-1.488-2.293 0-.058 40.649-1.222 81.32-.648 121.961.082 5.57-.364 11.63.695 17.14.129.684.836 1.075 1.457 1.122 5.848.422 11.633.457 17.492.152 1.637-.082 1.66-2.57 0-2.57ZM362.355 246.055c4.352.011 8.774.46 13.114.34 3.258-.094 2.39-1.06 3.094.968.789 2.274.261 5.89.304 8.27.18 9.402.485 18.804.473 28.183-.024 19.75-.293 39.497-.281 59.243 0 1.472 2.293 1.484 2.293 0 .035-18.579.328-37.149.433-55.73.047-9.263.39-18.513.274-27.782-.07-4.844.175-10.004-.743-14.79-.128-.683-.836-1.07-1.468-1.116-5.86-.414-11.625-.496-17.493-.141-1.636.094-1.66 2.555 0 2.566Zm0 0"/><path style="stroke:none;fill-rule:nonzero;fill:#000;fill-opacity:1" d="M378.75 341.668c-4.352-.008-8.773-.457-13.113-.34-3.262.094-2.39 1.063-3.094-.965-.79-2.273-.262-5.89-.309-8.273-.175-9.402-.48-18.805-.468-28.184.023-19.746.293-39.496.28-59.242 0-1.473-2.292-1.484-2.292 0-.035 18.582-.328 37.152-.434 55.73-.047 9.262-.39 18.512-.273 27.786.07 4.843-.176 10.004.742 14.785.129.683.836 1.074 1.469 1.12 5.86.411 11.625.497 17.492.142 1.637-.094 1.66-2.559 0-2.567ZM250.852 329.145c5.82.449 11.68-.082 17.492.332l-1.176-.899c.234 1.063.656 3.395 2.293 2.7.86-.368 1.023-1.555.644-2.321-.175-.355-.656-.625-1.046-.602-1.329.094-1.282 1.415-1.352 2.403-.305 4.066-.164 8.215-.14 12.277 0 1.473 2.28 1.485 2.292 0 .012-2.933.036-5.879.118-8.812.023-.848.543-3.18.187-3.993-.27-.601-2.21-.308-2.27-.578.024.13 1.93-.156 1.989-.308.082-.235-.305-1.2-.352-1.438-.117-.55-.66-.86-1.176-.894-5.976-.48-11.824-1.25-17.824-.399-1.515.211-.996 2.414.344 2.52Zm0 0"/><path style="stroke:none;fill-rule:nonzero;fill:#000;fill-opacity:1" d="M267.262 341.668c-5.825-.445-11.684.086-17.492-.328l1.175.894c-.234-1.058-.66-3.39-2.293-2.699-.859.367-1.023 1.559-.648 2.324.176.352.66.625 1.047.598 1.328-.094 1.281-1.41 1.351-2.402.309-4.063.168-8.211.141-12.278 0-1.472-2.281-1.484-2.293 0a368.275 368.275 0 0 1-.117 8.813c-.024.851-.54 3.183-.188 3.996.27.601 2.211.305 2.27.578-.024-.129-1.93.152-1.988.305-.082.238.304 1.203.355 1.437.117.555.656.86 1.176.895 5.972.484 11.82 1.25 17.82.402 1.516-.21 1-2.414-.34-2.523ZM508.898 174.875c-8.808 11.785-22.68 5.762-34.78 9.84-8.388 2.828-15.153 8.637-21.634 14.469-9.613 8.636-19.609 15.601-31.691 20.359-10.902 4.3-22.16 6.719-33.727 8.402-11.574 1.684-23.535 3.43-33.593 9.84-8.118 5.172-15.528 12.653-20.797 20.7-6.059 9.25-7.059 20.347-10.235 30.683-3.457 11.262-11.293 17.379-22.27 20.746-27.171 8.367-56.624 3.313-83.62 12.563-2.024.695-1.203 3.84.89 3.238 25-7.184 51.266-4.735 76.426-10.77 8.93-2.144 18.352-5.195 24.61-12.312 6.257-7.113 7.847-17.32 10.152-26.508 3.258-12.938 10.351-22.848 20.61-31.273 10.679-8.79 23.183-11.594 36.546-13.657 22.844-3.52 45.219-10.097 63.086-25.449 9.34-8.023 18.457-17.402 31.055-19.758 10.894-2.039 24.058 1.543 29.82-10.629.27-.578-.469-.988-.836-.496ZM468.445 49.664c2.73-11.828-5.715-21.633-18.75-21.633s-26.007 9.817-28.738 21.633l-1.598 6.918h-9.765l-11.48 49.742 30.054 14.942 36.973-14.942 11.433-49.52h-9.762Zm-35.37 0c1.28-5.574 7.433-10.039 13.948-10.039 6.52 0 10.614 4.465 9.317 10.04l-1.598 6.917h-23.281l1.601-6.918Zm20.433 48.625-22.082 8.934-17.961-8.922 6.906-29.89h40.04L453.52 98.3ZM523.285 74.57c-.8-1.613-5.187-9.636-4.082-10.402 1.578-1.082 8.637 1.355 10.527 1.73.508.098 1.145-.34.918-.918-2.761-7.316-5.539-14.632-8.316-21.949l-1 1a189.44 189.44 0 0 1 9.176 4.149c.648.316 1.355-.332 1-1-.504-.957-7.2-12.434-6.586-13.235 1.445-1.906 9.316 2.875 11.258 4.102.55.34 1.082-.32.832-.836-2.563-5.293-4.61-10.746-6.574-16.273-.247-.708-2.657-6.09-2.329-6.434.575-.602 6.727 3.062 7.621 3.523.637.32 1.38-.507.801-1.035-3.27-3.043-6.55-5.953-10.187-8.555-.574-.414-1.117.543-.551.954 3.492 2.605 6.82 5.351 9.809 8.53l.8-1.034c-3.058-1.524-6.152-2.996-9.222-4.492-.387-.188-1.012.132-.813.625 2.543 6.304 4.508 12.82 7.106 19.101 1.789 4.324 2.836 4.05-1.364 2.18-2.765-1.239-5.683-1.98-8.625-2.64a.686.686 0 0 0-.761 1c2.597 5.042 4.925 10.23 7.539 15.26l1-1.003a104.305 104.305 0 0 0-9.48-4.465c-.555-.234-1.216.461-1 1 2.105 5.48 4.222 10.961 6.327 16.438.422 1.097.848 2.191 1.27 3.289-.082 1.304-.848 1.472-2.305.504-2.566.086-5.625-1.047-8.187-1.414-.403-.06-.895.25-.719.718 1.543 4.219 3.328 8.016 5.906 11.727.106.14.317.023.235-.145Zm0 0"/><path style="stroke:none;fill-rule:nonzero;fill:#99e686;fill-opacity:1" d="m224.277 450.469-.023 25.144s-2.543 7.942-11.246 13.235l-27.387 16.164s-9.902 2.605-14.855 3.465c-4.953.859-19.938-1.051-19.938-1.051s-5.66-1.871-12.117-8.73c-6.457-6.856-33.324-40.45-33.324-40.45l-28.54-39.672s-14.077-19.37-20.796-43.926c-6.715-24.566-33.336-117.105-33.336-117.105L7.94 205.937s-4.484-13.28-3.906-16.699c.574-3.414 2.988-5.066 2.988-5.066l26.172-21.785s21.446-1.899 33.313-1.825c11.87.06 74.226.586 74.226.586s18.012-1.59 26.09 11.844c0 0 4.988 8.38 11.79 35.266 6.796 26.887 36.265 121.125 36.265 121.125s7.598 17.105 7.633 47.504l1.765 73.617Zm0 0"/><path style="stroke:none;fill-rule:nonzero;fill:#99e686;fill-opacity:1" d="M176.484 506.73s-6.375 1.004-19.785-20.418c-13.41-21.421-45.515-62.398-45.515-62.398l-15.82-27.277s-8.727-17.617-13.329-36.207L30.031 185.164s-2.234-7.473.614-15.2c2.843-7.73 6.62-6.128 6.62-6.128l-2.906-4.524s-4.398-.199-7.351 2.993c-2.953 3.191-15.621 14.632-15.621 14.632l-8.977 7.708-.422 7.976s2.657 16.637 7.504 28.137c4.848 11.5 31.54 109.27 31.551 109.27.012 0 13.832 51.206 13.832 51.206s5.328 17.016 11.645 25.993c6.316 8.98 41.007 58.609 41.007 58.609s22.95 31.644 31.125 36.879c0 0 6.2 8.14 12.422 8.41 6.223.262 14.883 1.285 14.883 1.285l10.82-1.215-.129-3.898"/><path style="stroke:none;fill-rule:nonzero;fill:#99e686;fill-opacity:1" d="m177.684 505.79-2.012.034 1.117 5.36s11.234-2.555 13.574-4.946c2.34-2.394 13.75-8.734 13.75-8.734l12.719-6.938s8.633-5.539 8.352-14.8c-.293-9.274-.438-55.329-.438-55.329l-1.68-53.492c0-.015-.449-17.687-8.636-42.242-8.188-24.555-23.75-78.789-23.75-78.789l-19.453-65.371s-3.59-19.168-18.504-21.336c0 0-38.961-1.18-39.23-1.18-.274 0-59.454-.234-59.454-.234l-21.16 1.941 4.398 4.09s38.325-2.05 45.29-2.168c6.976-.117 58.566 1.696 58.566 1.696l10.637.73s6.07.262 11.527 7.883c5.457 7.625 14.293 43.808 14.293 43.808l8.351 29.954 14.2 48.082 13.289 45.304s2.566 10.32 3.507 16.047c.942 5.727 3.258 44.563 3.258 44.563l1.825 51.347-.32 21.235s-1.645 8.707-6.141 14.043c-4.493 5.336-21.477 13.101-21.477 13.101l-16.398 6.305Zm0 0"/><path style="stroke:none;fill-rule:nonzero;fill:#1d1d1b;fill-opacity:1" d="M41.09 158.32c-12.778-2.472-19.738 5.953-18.399 18.36.551 5.09 2.07 10.027 3.48 14.925 3.696 12.844 7.45 25.676 11.177 38.508 10.62 36.489 22.234 72.758 31.773 109.508 2.93 11.297 6.871 22.258 10.14 33.426.528 1.8 3.352 1.035 2.821-.777C65.344 315.184 48.722 258 32.113 200.82c-1.328-4.582-2.66-9.18-3.976-13.773-.836-2.875-1.778-5.727-2.375-8.649-1.024-4.949-1.555-11.418 2.093-15.527 3.645-4.113 8.68-3.23 13.247-4.516.023 0 .035-.046 0-.058Zm0 0"/><path style="stroke:none;fill-rule:nonzero;fill:#1d1d1b;fill-opacity:1" d="M80.227 372.656c-.649 4.961 2.574 10.547 4.503 15.024 2.813 6.562 6.06 12.937 9.551 19.16 7.742 13.82 17.989 26.074 26.656 39.305 9 13.726 19.223 26.804 28.985 39.992a866.787 866.787 0 0 0 13.762 18.133c3.023 3.863 6.777 8.41 12.187 7.175.836-.191.895-1.605 0-1.757-8.422-1.426-12.96-10.391-17.75-16.72a1175.105 1175.105 0 0 1-13.351-18.05c-8.833-12.137-17.586-24.234-26.739-36.137-8.328-10.828-15.34-22.234-21.984-34.156-3.164-5.668-6.106-11.477-8.695-17.43-2.008-4.64-3.067-10.957-6.352-14.867-.281-.328-.703-.023-.75.317Zm0 0"/><g clip-path="url(#b)"><path style="stroke:none;fill-rule:nonzero;fill:#1d1d1b;fill-opacity:1" d="M223.77 469.969c.296 5.906-.118 12.41-4.48 16.898-4.048 4.168-10.306 6.457-15.306 9.25-8.902 4.98-21.09 14.418-31.78 12.406-1.036-.203-1.966.836-1.403 1.825 2.625 4.609 8.953 2.617 12.976 1.039 7.328-2.875 14.27-7.614 20.961-11.739 5.73-3.523 13.41-7.445 17.68-12.78 3.742-4.68 4.434-11.138 4.152-16.9-.093-1.8-2.906-1.812-2.812 0Zm0 0"/></g><path style="stroke:none;fill-rule:nonzero;fill:#1d1d1b;fill-opacity:1" d="M217.844 336.473c2.386 6.695 2.363 14.492 2.855 21.48 1.285 18.332 1.824 36.668 2.082 55.035.274 19.75-.515 40.016 1.555 59.657.14 1.308 1.918 1.32 2.035 0 1.672-18.075.684-36.82.176-54.954-.328-11.914-.73-23.824-1.375-35.726-.649-11.899-1.281-24.035-4.305-35.617-.87-3.313-2.297-6.528-2.953-9.899 0-.035-.07-.023-.059.012Zm0 0"/><path style="stroke:none;fill-rule:nonzero;fill:#1d1d1b;fill-opacity:1" d="M161.496 164.035c6.543 6.613 8.649 17.664 11.246 26.43 3.707 12.453 7.375 24.906 11.059 37.363 8.879 30.09 17.773 60.172 26.844 90.219 2.246 7.445 4.906 15.164 7.375 22.305.386 1.128 2.199.644 1.812-.497-2.129-6.14-3.285-12.796-5.152-19.039-4.164-13.964-8.258-27.949-12.493-41.89-8.87-29.266-17.714-58.547-26.632-87.801-2.766-9.074-5.059-22.566-13.434-27.914-.508-.316-1.047.402-.637.824Zm0 0"/><path style="stroke:none;fill-rule:nonzero;fill:#1d1d1b;fill-opacity:1" d="M222.996 360.84c-.601-5.313.152-10.356-1.309-15.508-1.363-4.816-2.773-10.273-5.234-14.633-.34-.601-1.164-.164-1.058.45.789 4.675 2.613 9.117 3.414 13.843.937 5.598 3.386 10.192 4.129 15.848 0 .035.058.035.058 0ZM159.863 162.645a14.78 14.78 0 0 1-.789-.86c-.304-.351-.8.309-.379.496.356.153.707.34 1.059.516.098.05.203-.07.121-.152Zm0 0"/><path style="stroke:none;fill-rule:nonzero;fill:#1d1d1b;fill-opacity:1" d="M163.04 164.73c-2.298-7.421-14.743-7.421-21.118-7.964-12.399-1.059-25.02-.836-37.453-1.082-24.551-.485-49.16-.625-73.625 1.754-2.73.269-2.754 4.597 0 4.312 21.562-2.215 43.265-2.484 64.918-2.262 10.754.106 21.504.34 32.258.555 5.351.105 10.726.07 16.066.434 5.66.39 13.601.863 18.258 4.668.293.234.824.023.695-.403ZM50.418 167.734c-4.695-.539-9.918-.656-13.059 3.442-3.14 4.101-3.363 10.144-2.824 14.894.543 4.746 1.93 8.977 3.203 13.371 3.422 11.88 6.88 23.754 10.34 35.621 9.914 34.028 20.383 67.926 29.7 102.106 2.824 10.36 6.222 20.527 9.245 30.812.32 1.082 2.012.625 1.696-.472A65206.768 65206.768 0 0 1 42.348 208.55c-1.235-4.278-2.48-8.543-3.707-12.82-.75-2.626-1.575-5.254-2.118-7.93-.87-4.383-1.058-9.094.602-13.324 2.387-6.118 7.86-5.68 13.316-6.707.024 0 .012-.036 0-.036ZM88.531 371.02c.2 4.878 2.668 9.734 4.574 14.152 2.743 6.351 5.895 12.523 9.293 18.547 7.153 12.687 16.282 24.199 24.47 36.219 8.632 12.675 17.82 25.035 26.902 37.398 4.035 5.476 8.093 10.945 12.28 16.293 2.505 3.207 5.868 7.578 10.434 7 .692-.094.703-1.004 0-1.098-7.27-.894-12.14-10.508-16.07-15.742-3.93-5.23-8.023-10.828-11.973-16.293-7.918-10.957-15.566-22.105-23.808-32.828-8.246-10.719-14.977-21.219-21.387-32.637-2.918-5.183-5.637-10.484-8.047-15.93-2.176-4.925-3.48-10.57-6.176-15.21-.128-.223-.503-.13-.492.129Zm0 0"/><path style="stroke:none;fill-rule:nonzero;fill:#1d1d1b;fill-opacity:1" d="M218.43 462.16c.308 4.781.379 9.965-1.856 14.348-2.953 5.785-8.613 8.238-14.047 11.055-4.457 2.32-8.953 4.605-13.433 6.878-4.989 2.536-10.598 6.282-16.317 4.125-.574-.222-1.234.59-.836 1.094 2.66 3.488 7.34 2.063 10.93.649 6.813-2.672 13.363-6.926 19.75-10.461 5.352-2.957 10.918-6.106 14.363-11.336 3.176-4.817 3.48-10.735 3.13-16.352-.071-1.086-1.755-1.086-1.684 0Zm0 0"/><path style="stroke:none;fill-rule:nonzero;fill:#1d1d1b;fill-opacity:1" d="M210.809 335.438c2.058 6.351 2.527 13.265 3.129 19.863 1.527 16.84 2.14 33.746 2.62 50.644.52 18.426.333 37.032 1.813 55.41.059.778 1.188.801 1.223 0 1.238-27.886-.516-56.367-2.258-84.23-.68-10.828-1.352-21.824-3.879-32.402-.754-3.137-1.883-6.164-2.613-9.297 0-.024-.035-.012-.035 0Zm0 0"/><path style="stroke:none;fill-rule:nonzero;fill:#1d1d1b;fill-opacity:1" d="M160.262 177.043c5.953 6.516 7.965 16.934 10.398 25.324a19465.24 19465.24 0 0 1 10.082 34.828c8.094 28.016 16.172 56.047 24.383 84.032 2.082 7.093 4.25 14.14 6.602 21.136.234.684 1.316.39 1.082-.293-1.93-5.761-3.153-11.875-4.86-17.718-3.847-13.211-7.644-26.43-11.515-39.637-8.012-27.266-15.989-54.531-24.032-81.785-2.53-8.567-4.613-20.5-11.695-26.332-.305-.262-.715.14-.445.445ZM152.45 169.102c-7.458-3.239-17.15-2.344-25.126-2.579-9.375-.285-18.738-.53-28.113-.683-19.2-.32-38.441-.2-57.57 1.613-1.633.152-1.645 2.746 0 2.582 18.398-1.828 36.914-2.086 55.382-1.875 9.399.106 18.786.328 28.172.567 8.895.222 18.282 1.332 27.125.835.227-.011.368-.355.13-.46ZM35.89 158.512c-9.515-3.606-14.105 10.851-12.257 17.683.129.473.777.344.812-.105.399-4.488 1.164-8.649 4.211-12.195 2.07-2.403 5.188-2.688 7.387-4.833.187-.187.082-.468-.14-.55Zm0 0"/><path style="stroke:none;fill-rule:nonzero;fill:#1d1d1b;fill-opacity:1" d="m33.668 158.852-.59-.637c-.422-.469-1.094-.578-1.695-.445-5.774 1.292-8.738 6.183-13.113 9.718-6.082 4.914-12 9.957-17.282 15.742-1.742 1.91 1.094 4.77 2.848 2.852 5.516-6.066 11.75-11.184 18.02-16.426 2.777-2.32 4.882-5.465 8.023-7.316 1.789-1.047 3.2-1.098 3.883-3.133a.362.362 0 0 0-.094-.355Zm0 0"/><path style="stroke:none;fill-rule:nonzero;fill:#1d1d1b;fill-opacity:1" d="M4.035 182.594C1.316 181.828.2 187.73.06 189.508c-.516 6.578 1.976 12.691 3.882 18.82.73 2.332 1.34 4.711 2 7.067 3.54 12.667 7.153 25.324 10.727 37.976 9.55 33.805 19.082 67.621 28.656 101.422 2.457 8.676 5.457 17.734 8.281 25.937.422 1.235 2.399.704 1.965-.543-2.011-5.843-3.047-13.539-4.847-19.867-4.153-14.61-8.27-29.23-12.399-43.843-8.773-31.094-17.527-62.188-26.36-93.27a1053.05 1053.05 0 0 0-3.823-13.113c-.27-.895-.532-1.805-.813-2.688-.883-2.683-1.965-5.289-2.715-8.023-.297-1.07-2.402-16.117-.707-16.012.446.024.516-.648.106-.754ZM59.156 392.852c1.649 12.574 11.223 24.98 18.047 35.289 7.809 11.796 16.317 23 24.973 34.171 1.363 1.766 4.48-.601 3.117-2.406-8.375-11.133-16.879-22.219-24.75-33.719a307.137 307.137 0 0 1-10.918-17.144c-3.234-5.492-5.96-11.535-10.281-16.273-.059-.07-.2-.024-.188.082Zm0 0"/><g clip-path="url(#c)"><path style="stroke:none;fill-rule:nonzero;fill:#1d1d1b;fill-opacity:1" d="M178.387 511.066c-7.985-.128-15.973-.363-23.973-.894-2.059-.14-3.844 0-5.703-.742-3.223-1.274-5.988-4.102-8.422-6.446-5.34-5.136-10.152-10.84-14.824-16.601-4.047-4.996-7.961-10.11-11.797-15.281-4.223-5.704-8-12.032-12.918-17.145-1.094-1.14-2.797.305-2.117 1.637 3.484 6.836 8.87 12.949 13.539 19.02 3.766 4.89 7.601 9.73 11.59 14.456 5.066 6.008 10.304 12.004 16.207 17.215 2.355 2.07 5.011 4.524 7.976 5.711 2.059.828 4.258.828 6.47 1.04 8.14.8 16.175 1.237 24.163-.626.762-.176.586-1.344-.191-1.355Zm0 0"/></g><g clip-path="url(#d)"><path style="stroke:none;fill-rule:nonzero;fill:#1d1d1b;fill-opacity:1" d="M168.004 512.059c.234-1.38.27-2.758.105-4.149a.663.663 0 0 0-1.226-.328c-3.832 5.902-1.942-.508-1.363-3.477.222-1.144-1.141-1.664-1.813-.77-1.82 2.419-3.644 4.833-5.469 7.25l1.778.755c.609-3.63 1.222-7.27 1.824-10.899.164-.968-1.227-1.77-1.73-.73-1.965 4.074-3.684 7.703-7.223 10.719l1.515.886c1.07-5.293 1.72-10.37 3.895-15.378.543-1.258-1-2.168-1.824-1.07A566.516 566.516 0 0 0 146.3 508.84l1.422.836c3.164-6.375 5.093-12.926 6.738-19.828.379-1.59-1.715-2.465-2.61-1.098-3.519 5.387-6.656 11.066-11.046 15.8l1.398 1.075c3.426-7.2 5.883-14.625 7.25-22.48.188-1.075-1.168-2.215-2.035-1.192-4.625 5.477-8.637 11.371-12.34 17.508l1.387.59c1.445-4.078 3.129-8.047 4.574-12.125 1.45-4.074 1.332-8.399 2.777-12.488.52-1.45-1.906-2.512-2.515-1.06-1.332 3.134-2.281 6.302-4.188 9.142-2.18 3.253-4.707 6.351-7.234 9.32l1.504 1.168c1.812-3.57 3.637-7.309 4.562-11.23 1.192-5.008-.082-10.403 2.012-15.212.777-1.789-1.55-3.273-2.668-1.566-4.281 6.563-7.61 13.95-11.305 20.879l1.895.8c1.574-6.964 3.68-13.538 4.574-20.656.309-2.425-3.656-2.507-3.86 0-.527 6.778-1.363 13.434-2.714 20.102-.223 1.086 1.34 1.91 1.894.8 3.61-7.175 8.09-13.491 12.172-20.37l-2.82-1.192c-1.46 3.797-1.059 7.164-1.117 11.184-.082 5.68-1.801 10.426-4.281 15.48-.45.918.761 2.063 1.503 1.168 4.68-5.61 8.989-12.03 12.446-18.43l-2.516-1.058c-1.262 3.215-1.777 6.563-2.25 9.98-.762 5.536-1.656 9.625-3.832 14.774-.379.883.738 1.59 1.305.766 3.953-5.75 8.304-11.18 12.75-16.555l-2.035-1.188c-1.27 7.692-3.34 15.07-6.434 22.23-.363.84.672 1.911 1.399 1.075 4.39-5.078 8.94-9.734 12.257-15.613l-2.61-1.094c-1.202 6.914-1.905 13.55-5.41 19.758-.448.777.692 1.758 1.294 1.004 3.633-4.598 7.21-9.203 10.703-13.906l-1.824-1.07c-2.211 5.16-3.364 10.605-3.856 16.198-.086.993 1.223 1.122 1.692.461 2.53-3.57 5.492-6.918 7.421-10.875l-1.726-.73c-.625 3.629-1.258 7.258-1.883 10.887-.187 1.117 1.106 1.625 1.777.753 1.832-2.402 3.668-4.82 5.504-7.222l-1.847-.508c-.176 2.676-.27 5.363-.375 8.047-.012.32.375.426.586.25 1.46-1.215 2.836-2.367 4.14-3.758l-1.094-.637a11.04 11.04 0 0 1-1.035 4.016c-.527 1.45 2.047 2.05 2.227.309Zm0 0"/></g><path style="stroke:none;fill-rule:nonzero;fill:#000;fill-opacity:1" d="M133.078 243.781c19.469 4.23 34.277 23.742 38.77 42.32 4.496 18.583-2.88 38.66-22.266 43.516-37.559 9.426-74.004-48.933-46.09-77.566 7.918-8.117 19.715-8.317 30.195-6.102 10.86 2.297 19.34 7.871 26.598 16.106.73.824 1.895-.223 1.461-1.118-8.246-16.687-37.715-24.332-53.57-15.625-17.906 9.84-19.774 34.676-12.848 51.833 7.578 18.722 27.106 36.949 48.488 35.64 19.692-1.215 32.621-19.05 31.563-38.047-1.2-21.562-18.211-50.898-42.219-51.617-.363 0-.46.566-.082.649Zm0 0"/><path style="stroke:none;fill-rule:nonzero;fill:#000;fill-opacity:1" d="m133.535 307.453-18.066-14.539 5.27-6.562 10.421 8.398 14.035-22.422 5.868 5.149Zm0 0"/><path style="stroke:none;fill-rule:nonzero;fill:#000;fill-opacity:1" d="M133.547 307.57c-6.211-4.37-12.797-9.082-18.738-13.832a1.055 1.055 0 0 1-.164-1.484c1.742-2.192 3.515-4.371 5.375-6.469a.888.888 0 0 1 1.28-.14c3.38 2.933 6.66 5.96 10.095 8.812l-.551.094c2.398-3.7 4.644-7.492 6.808-11.332l3.27-5.75 3.355-5.703a1.042 1.042 0 0 1 1.434-.38c.07.036.129.083.176.13l5.965 5.043c.445.378.539 1.003.27 1.484-5.599 10.027-12.224 19.973-18.575 29.516Zm-.035-.234c5.258-10.145 10.574-20.785 16.504-30.469l.246 1.531-5.785-5.257 1.62-.235c-4.667 7.2-10.218 14.719-14.62 22.047a.386.386 0 0 1-.551.106c-3.52-2.758-7.188-5.317-10.778-7.989l1.286-.14c-1.649 2.273-3.391 4.465-5.153 6.644l-.168-1.484c5.082 4.11 12.434 10.758 17.387 15.246Zm0 0"/></svg>