<svg width="155" height="229" viewBox="0 0 155 229" fill="none" xmlns="http://www.w3.org/2000/svg">
    <g clip-path="url(#clip0_18759_82356)">
        <path d="M101.062 215.559C100.556 215.848 85.4656 224.982 85.4656 224.982C85.4656 224.982 78.2315 227.692 76.002 227.769C73.7726 227.847 69.2038 228.83 65.2048 223.921C61.2059 219.009 41.8768 190.872 41.8768 190.872C41.8768 190.872 37.7439 183.307 36.0124 176.14C34.2808 168.973 32.0134 162.735 32.0134 162.735L12.1525 95.5754C12.1525 95.5754 9.35323 91.0621 11.2188 87.612C13.0843 84.1618 24.5493 80.5782 24.5493 80.5782L47.2095 79.5171C47.2095 79.5171 71.2473 78.6769 74.1805 83.455C74.1805 83.455 76.9358 84.2514 80.6668 98.5856C84.3999 112.92 88.9307 127.963 88.9307 127.963L98.4402 158.666C98.4402 158.666 100.218 178.575 100.396 179.371C100.574 180.168 102.199 205.424 102.261 205.563C102.323 205.703 102.083 210.873 102.083 210.873L101.062 215.563V215.559Z" fill="#53B266"/>
        <path d="M10.3551 89.7941L4.37861 88.7071L0.57959 82.4399L12.5165 50.7412L42.0769 53.0068L46.4358 53.194L50.6047 59.6105L42.6727 80.023L32.1514 80.0926L23.4197 81.1538L19.4207 82.2826L15.1558 83.5428L13.0224 85.6671L10.3551 89.7941Z" fill="#9BE887"/>
        <path d="M19.7563 51.3367C19.7563 51.3367 24.2092 36.6202 28.2841 33.3173C32.3591 30.0164 38.0436 29.8273 41.0748 31.5255C44.1061 33.2237 46.2855 36.9029 45.8116 40.8647C45.3377 44.8265 41.7387 53.1344 41.7387 53.1344C41.7387 53.1344 36.1481 53.3176 36.2421 53.0329C36.3361 52.7482 40.2211 43.1283 39.9371 41.0518C39.6532 38.9754 37.9477 36.429 35.8622 36.429C33.7767 36.429 31.3154 37.749 29.6098 41.241C27.9042 44.733 25.8208 52.0892 25.8208 52.0892L19.7563 51.3347V51.3367Z" fill="#9BE887"/>
        <path d="M125.178 84.6479L111.013 108.005L113.253 114.298L139.574 120.581L154.038 97.28L151.689 91.5841L148.264 90.7918L125.178 84.6479Z" fill="#9BE887"/>
        <path d="M131.83 86.3103C131.83 86.3103 137.542 75.3048 141.261 73.29C144.98 71.2753 149.511 71.9601 151.66 73.7519C153.81 75.5437 154.992 78.7788 154.028 81.8488C153.064 84.9187 149.463 91.2875 149.463 91.2875C149.463 91.2875 144.522 90.2921 144.64 90.081C144.758 89.87 149.263 82.8183 149.347 81.1321C149.431 79.4458 148.457 77.1762 146.806 76.8696C145.154 76.563 143.007 77.2459 141.137 79.7604C139.268 82.2748 136.524 87.7975 136.524 87.7975L131.832 86.3063L131.83 86.3103Z" fill="#9BE887"/>
        <path d="M112.977 18.8135L132.43 50.8924L129.702 58.7683L93.2057 68.1652L73.3389 36.1619L76.2781 27.9735L81.2708 27.2528L112.977 18.8135Z" fill="#9BE887"/>
        <path d="M103.841 21.0971C103.841 21.0971 95.9948 5.98243 90.8881 3.21313C85.7814 0.443823 79.557 1.3875 76.6038 3.84821C73.6506 6.30893 72.029 10.7526 73.3526 14.9692C74.6763 19.1859 79.623 27.9318 79.623 27.9318C79.623 27.9318 86.4073 26.5641 86.2473 26.2754C86.0874 25.9867 79.8969 16.3011 79.783 13.9857C79.669 11.6703 81.0047 8.55264 83.2741 8.13257C85.5415 7.7105 88.4927 8.65019 91.0601 12.1044C93.6274 15.5585 97.3964 23.1437 97.3964 23.1437L103.841 21.0971Z" fill="#9BE887"/>
        <path d="M86.3296 118.704C84.4601 111.296 82.2706 103.941 80.1632 96.595C78.6376 91.2754 77.3319 84.0406 71.7214 81.4186C68.4582 79.8936 64.5072 79.9354 60.9821 79.7244C56.7052 79.4695 52.4223 79.3421 48.1394 79.2585C43.8566 79.1749 39.6097 79.143 35.3468 79.157C33.1773 79.1649 31.0079 79.141 28.8404 79.1669C27.2328 79.1868 25.5113 79.3322 24.1556 80.2818C20.7265 82.6828 22.2341 87.214 23.2339 90.491C23.8237 92.4202 24.3996 94.3533 24.9774 96.2844C27.1489 103.545 29.3823 110.788 31.5877 118.039C34.233 126.729 36.9543 135.393 39.5597 144.095C41.4832 150.518 43.4027 156.942 45.3422 163.359C45.7021 164.551 46.114 165.74 46.4399 166.942C47.8175 172.019 49.4051 176.931 51.9085 181.597C52.9242 183.489 54.1259 185.276 55.2776 187.086C57.3451 190.333 59.4185 193.576 61.476 196.829C63.9074 200.676 66.4507 204.474 68.7621 208.394C70.7336 211.739 72.7271 215.056 74.7766 218.355C75.7903 219.989 76.8041 221.622 77.7898 223.272C78.7755 224.923 79.9552 226.233 81.7908 226.724C83.6423 227.22 85.3499 226.704 86.9654 225.783C90.7885 223.603 94.6395 221.419 98.3465 219.05C99.7541 218.15 101.13 217.18 101.928 215.669C102.725 214.158 102.971 212.37 103.031 210.64C103.073 209.44 101.348 209.513 101.204 210.64C100.99 212.32 100.582 214.172 99.3122 215.39C97.9506 216.696 95.9371 217.423 94.3195 218.367C92.52 219.418 90.7185 220.471 88.9189 221.522C88.0192 222.048 87.1194 222.575 86.2196 223.101C85.4218 223.567 84.59 224.144 83.6423 224.234C80.915 224.491 79.3854 220.893 78.0737 218.886C73.8528 212.428 69.4779 206.085 65.287 199.607C61.674 194.022 58.0609 188.436 54.5138 182.81C51.9225 178.701 50.0989 174.062 48.7573 169.409C48.3414 167.97 48.0095 166.52 47.5696 165.091C45.98 159.899 44.4244 154.697 42.8608 149.496C40.3895 141.278 37.8761 133.07 35.5807 124.802C33.4013 116.952 30.9659 109.161 28.6545 101.349C27.4508 97.2819 26.2651 93.2026 24.9594 89.1651C24.3476 87.2738 23.4518 84.8369 24.3536 82.8978C25.1214 81.2474 27.0589 80.9926 28.6845 80.9368C30.7759 80.8631 32.8694 80.8572 34.9609 80.8193C43.1887 80.6641 51.4066 80.4729 59.6325 80.8293C61.6979 80.9189 63.7654 81.0144 65.8249 81.1877C67.6284 81.339 69.5159 81.5878 71.1835 82.3324C73.6049 83.4134 75.3704 85.5278 76.4641 87.8849C77.9118 91.0046 78.7296 94.4389 79.6793 97.7298C80.6571 101.114 81.5988 104.509 82.5506 107.901C83.5783 111.568 84.5821 115.24 85.8157 118.843C85.9257 119.166 86.4156 119.036 86.3316 118.702L86.3296 118.704Z" fill="black"/>
        <path d="M87.0874 123.51C87.4053 124.627 87.5073 125.799 87.8212 126.93C88.1351 128.061 88.483 129.299 88.819 130.482C89.4708 132.787 90.1646 135.081 90.8324 137.382C92.1521 141.925 93.5337 146.449 94.7874 151.01C95.8831 155 97.2208 158.995 97.9086 163.08C98.0546 163.951 98.1845 165.43 98.2925 166.568C98.7164 171.054 99.1843 175.521 99.5162 180.017C99.8961 185.203 100.256 190.391 100.616 195.577C100.772 197.823 100.944 200.067 101.098 202.311C101.152 203.103 101.168 203.907 101.296 204.692C101.34 204.966 101.388 205.209 101.454 205.476C101.482 205.586 101.512 205.695 101.544 205.803C101.572 205.894 101.61 206.249 101.598 205.95C101.62 206.479 102.447 206.481 102.425 205.95C102.413 205.659 102.565 205.1 102.589 204.741C102.633 204.081 102.571 203.422 102.533 202.763C102.423 200.835 102.307 198.906 102.188 196.979C101.874 191.898 101.486 186.824 101.094 181.749C100.728 177.023 100.494 172.282 100.058 167.564C99.9301 166.178 99.8021 164.791 99.6242 163.411C99.2143 160.263 98.2345 157.178 97.4547 154.106C96.1471 148.959 94.5835 143.867 92.9959 138.8C92.1821 136.204 91.3103 133.612 90.3506 131.065C89.8927 129.847 89.4248 128.634 88.9449 127.424C88.705 126.819 88.459 126.216 88.2071 125.614C87.8952 124.868 87.4213 124.251 87.1114 123.5C87.1054 123.486 87.0834 123.49 87.0874 123.506V123.51Z" fill="black"/>
        <path d="M14.7103 84.2139C13.3966 84.63 11.949 85.1297 11.0392 86.2227C10.1295 87.3157 9.93352 88.7173 10.0515 90.0711C10.1575 91.2755 10.4754 92.4402 10.7913 93.6029C11.1712 95.0024 11.5951 96.3901 12.003 97.7837C13.7605 103.782 15.4901 109.791 17.2716 115.783C19.643 123.763 22.0504 131.734 24.3238 139.743C26.3713 146.962 28.4267 154.177 30.5722 161.368C31.308 163.837 32.0438 166.305 32.7816 168.774C33.0276 169.596 33.2455 170.468 33.6054 171.247C33.6654 171.378 33.7294 171.51 33.7994 171.637C33.8274 171.691 33.8533 171.747 33.8793 171.8C34.0193 172.079 33.7694 171.575 33.9533 171.952C34.0413 172.129 34.1253 172.308 34.2173 172.483C34.2452 172.535 34.2692 172.587 34.2952 172.638C34.4332 172.917 34.2632 172.497 34.3112 172.656C34.4452 173.104 35.151 172.913 35.017 172.463C35.0091 172.435 35.0011 172.41 34.9931 172.382L34.8251 172.792H34.8291C34.9391 172.744 35.033 172.577 35.019 172.461C35.0031 172.326 34.9871 172.189 34.9691 172.053C34.9571 171.954 34.9511 171.854 34.9331 171.757C34.9191 171.675 34.9071 171.587 34.8971 171.504C34.9191 171.683 34.9151 171.631 34.8931 171.422C34.8171 170.689 34.6311 170.007 34.4352 169.298C33.8194 167.062 33.1275 164.846 32.4677 162.624C30.4542 155.834 28.3788 149.063 26.2813 142.296C23.8739 134.531 21.5505 126.743 19.2351 118.953C17.3516 112.618 15.4281 106.295 13.5186 99.9657C12.9727 98.154 12.4249 96.3403 11.879 94.5286C11.2052 92.2968 10.0275 89.8302 10.8753 87.5287C11.4991 85.8305 13.2047 84.9864 14.7223 84.2259C14.7323 84.2219 14.7243 84.2059 14.7143 84.2079L14.7103 84.2139Z" fill="black"/>
        <path d="M35.2069 175.121C35.0769 176.152 35.3668 176.947 35.7308 177.912C36.0947 178.878 36.3086 179.955 36.6205 180.964C37.2184 182.907 37.9542 184.799 38.8599 186.62C39.7617 188.432 40.7375 190.329 41.8572 192.018C42.8249 193.475 43.8727 194.886 44.8644 196.328C47.0718 199.537 49.2952 202.738 51.5167 205.938C54.5679 210.33 57.5291 214.769 60.5104 219.207C61.6261 220.867 62.7698 222.508 63.8935 224.164C64.6833 225.329 65.4851 226.308 66.6388 227.156C67.7925 228.005 69.2541 228.683 70.7477 228.91C72.6792 229.203 74.6187 228.727 76.4982 228.307C77.554 228.072 78.5057 227.676 79.5374 227.389C80.4692 227.131 81.431 226.953 82.3727 226.73C83.3145 226.507 84.1563 226.263 85.048 226.036C85.6679 225.878 85.4039 224.923 84.7841 225.082C82.7046 225.612 80.1453 226.233 77.8699 226.462C76.0463 226.645 74.2788 227.338 72.4433 227.435C70.9657 227.513 69.54 227.107 68.2863 226.338C67.4786 225.844 66.7727 225.221 66.1449 224.517C66.0129 224.367 65.891 224.2 65.9569 224.292C65.781 224.045 65.625 223.782 65.4591 223.527C64.4253 221.958 63.3756 220.399 62.2919 218.864C57.3572 211.871 52.3305 204.938 47.4697 197.891C46.316 196.218 45.1483 194.556 43.9626 192.907C42.695 191.146 41.7412 189.26 40.5915 187.429C39.3198 185.404 38.2641 183.349 37.4083 181.114C36.9904 180.023 36.5225 178.904 36.2666 177.765C36.0387 176.754 35.8947 175.929 35.2449 175.107C35.2329 175.093 35.2149 175.107 35.2129 175.121H35.2069Z" fill="black"/>
        <path d="M92.9617 142.043C91.1562 142.429 89.3487 142.751 87.5491 143.177C83.6821 144.093 79.8291 145.067 75.9721 146.022C67.3164 148.165 58.6446 150.243 49.9988 152.421C48.5072 152.797 47.0236 153.201 45.538 153.6C44.8921 153.773 44.1683 154.046 43.5225 154.137C43.3205 154.165 43.4065 154.472 43.6065 154.444C49.311 153.633 55.0115 151.949 60.6161 150.568C69.2718 148.435 77.9556 146.379 86.5734 144.099C88.7348 143.528 90.9183 143.008 93.0077 142.206C93.1077 142.168 93.0717 142.021 92.9637 142.045L92.9617 142.043Z" fill="black"/>
        <path d="M43.1888 153.982C41.0514 154.603 38.9099 155.209 36.7545 155.762C34.599 156.316 32.3556 156.562 30.3721 157.411C29.9602 157.586 30.1622 158.31 30.604 158.263C32.7435 158.026 34.9069 157.17 36.9884 156.608C39.0699 156.047 41.2633 155.36 43.3828 154.685C43.8286 154.544 43.6427 153.851 43.1888 153.982Z" fill="black"/>
        <path d="M84.8199 152.039C82.8484 152.126 80.829 152.768 78.9274 153.267C76.2841 153.962 73.6588 154.734 71.0295 155.481C68.4002 156.228 65.9148 156.891 63.3495 157.568C61.198 158.135 58.6847 158.463 56.7132 159.489C55.4655 160.138 54.3598 161.255 54.2798 162.726C54.1998 164.197 54.8817 165.858 55.8154 166.996C56.6992 168.071 57.9609 168.667 59.3625 168.485C60.3283 168.36 61.292 168.061 62.2338 167.822C67.0265 166.6 71.7913 165.23 76.5241 163.791C79.4173 162.911 82.3306 162.099 85.2138 161.189C87.2233 160.556 89.5227 160.108 91.3642 159.075C91.7042 158.883 91.5822 158.236 91.1523 158.292C89.4827 158.507 87.8651 159.164 86.2496 159.626C83.9701 160.277 81.6927 160.934 79.4153 161.593C74.6286 162.977 69.8118 164.279 64.999 165.575C63.3315 166.025 61.6719 166.513 59.9983 166.937C58.3248 167.361 57.0931 166.831 56.2433 165.264C55.8454 164.534 55.4875 163.57 55.5515 162.728C55.6255 161.768 56.3993 161.065 57.1871 160.616C59.0586 159.548 61.442 159.14 63.5074 158.539C65.8348 157.86 68.1602 157.167 70.4956 156.518C73.2689 155.748 76.0542 155.011 78.8135 154.193C80.815 153.602 82.9884 153.094 84.8419 152.126C84.8819 152.105 84.8639 152.037 84.8179 152.039H84.8199Z" fill="black"/>
        <path d="M89.1189 159.335C90.4646 159.815 92.2201 158.893 93.1139 157.888C94.1836 156.683 94.6015 154.896 94.1137 153.367C93.7258 152.154 92.708 150.745 91.4403 150.339C90.6405 150.082 89.7768 150.404 88.993 150.581C88.1592 150.771 86.9595 150.777 86.3597 151.422C86.2317 151.559 86.2997 151.748 86.4636 151.812C87.0715 152.049 87.5953 151.806 88.2232 151.668C88.905 151.519 89.5928 151.33 90.2826 151.22C91.6723 150.998 92.83 152.375 93.1859 153.623C93.5418 154.872 93.0839 156.462 92.0662 157.344C91.1704 158.121 89.8747 158.161 89.027 158.979C88.903 159.098 88.975 159.286 89.1229 159.337L89.1189 159.335Z" fill="black"/>
        <path d="M74.6146 154.711L74.5006 154.842C74.3786 154.981 74.2886 155.184 74.3606 155.374C74.8485 156.668 75.3484 157.94 75.7802 159.256C76.1801 160.476 76.5421 161.645 77.1779 162.768C77.2259 162.853 77.3758 162.819 77.3698 162.716C77.2959 161.436 76.9519 160.259 76.578 159.037C76.1761 157.723 75.8182 156.397 75.4163 155.085C75.3624 154.912 75.2204 154.741 75.0344 154.705L74.8165 154.661C74.7465 154.647 74.6645 154.657 74.6165 154.715L74.6146 154.711Z" fill="black"/>
        <path d="M60.0582 158.852C59.5063 158.521 58.3766 158.908 57.8107 159.067C56.681 159.382 55.5673 159.804 54.4636 160.198C53.5738 160.516 52.788 160.958 52.1562 161.679C51.1845 162.786 51.3304 164.335 51.7563 165.637C52.1822 166.939 52.854 168.058 53.9697 168.782C55.0855 169.507 56.1672 169.332 57.4068 169.165C58.1846 169.061 58.9485 168.759 59.6863 168.506C60.1901 168.334 61.2159 168.235 61.3718 167.626L61.0779 167.918L61.0919 167.914C61.6098 167.759 61.3898 166.949 60.868 167.104L60.854 167.108L61.2639 167.216C60.87 166.861 60.3701 167.108 59.9282 167.228C59.2204 167.419 58.5066 167.578 57.7987 167.765C57.1609 167.934 56.3011 168.127 55.4753 167.914C54.2977 167.61 53.5039 166.324 53.082 165.271C52.5341 163.901 52.5721 162.475 53.8438 161.54C54.4576 161.088 55.2274 160.819 55.9432 160.58C56.857 160.275 57.7848 160.017 58.6925 159.698C59.1184 159.549 59.8442 159.33 60.0742 158.912C60.0862 158.89 60.0802 158.862 60.0582 158.848V158.852Z" fill="black"/>
        <path d="M26.5852 104.445C27.5049 102.888 27.437 101.439 27.4769 99.7009C27.4829 99.4222 27.159 99.3405 26.9691 99.4919C24.9996 101.071 23.358 103.008 21.5465 104.76C19.7309 106.514 17.8634 108.21 15.9039 109.805L17.0436 110.681C18.8932 107.746 19.9449 104.451 21.2885 101.282C21.9684 99.679 22.6722 98.0783 23.486 96.5394C24.2018 95.1876 25.2675 93.8756 25.1975 92.273C25.1735 91.7076 24.4957 91.4069 24.0758 91.8091C22.4222 93.3978 20.6867 95.0204 18.6072 96.0078C16.6477 96.9376 14.8302 98.3292 13.2306 99.7746C13.6565 100.103 14.0844 100.43 14.5103 100.758C17.9034 94.9208 21.1686 88.7053 23.22 82.2589C23.432 81.5919 22.4602 80.9688 21.9904 81.5461C20.2428 83.6963 18.5452 85.8783 16.8817 88.0881C15.2121 90.308 13.2646 92.2351 11.3171 94.2001L12.6128 95.1956C13.3886 93.5252 13.9264 91.7454 14.5003 89.9994C15.0741 88.2534 15.478 86.3342 16.2458 84.6021C16.5298 83.9591 15.78 83.2463 15.2141 83.8098C13.2546 85.7529 11.581 88.0762 9.95346 90.298L11.2271 90.6424C11.1811 89.9317 11.771 88.996 12.0529 88.3788C12.3608 87.6999 12.6368 86.7403 13.1046 86.1709C13.6405 85.5159 12.7048 84.5723 12.1629 85.2332C11.5391 85.9957 11.0832 86.9275 10.7033 87.8293C10.3634 88.6376 9.76751 89.7326 9.86149 90.6404C9.92947 91.3094 10.7393 91.5682 11.1352 90.9849C12.6148 88.8009 14.1964 86.5313 16.1439 84.7355L15.1121 83.9432C13.4806 87.2958 12.7527 91.0008 11.1891 94.3674C10.8152 95.1717 11.785 96.0676 12.4848 95.3628C14.4203 93.4097 15.9959 91.0725 17.7834 88.984C19.579 86.8876 21.2905 84.7276 23.0321 82.5814L21.8024 81.8687C19.7749 88.2773 16.1519 93.9911 13.1046 99.9398C12.6968 100.738 13.7085 101.602 14.3843 100.923C15.9719 99.3286 17.8394 98.1261 19.535 96.6688C20.3808 95.9421 21.3365 95.4623 22.2863 94.8929C23.236 94.3236 24.1678 93.5292 25.0076 92.7348L23.8859 92.271C23.9399 93.8278 22.5422 95.4763 21.8884 96.848C21.2346 98.2197 20.6807 99.6432 20.1388 101.067C18.9631 104.162 17.5915 107.161 15.792 109.95C15.3141 110.693 16.3318 111.304 16.9317 110.826C18.9551 109.215 20.9106 107.519 22.7282 105.681C24.5457 103.844 26.2633 102.07 27.437 99.8522L26.8931 99.7825C27.195 101.246 26.7591 102.966 26.4832 104.405C26.4712 104.465 26.5512 104.505 26.5852 104.449V104.445Z" fill="black"/>
        <path d="M26.1073 80.3934C25.7834 80.3316 25.4895 80.3277 25.1616 80.3197C24.7617 80.3097 24.4237 80.4232 24.0458 80.5487C23.0961 80.8672 23.6479 82.2489 24.5857 81.8248C24.9456 81.6635 25.2555 81.5142 25.5395 81.2395C25.7714 81.0165 25.9773 80.8174 26.1713 80.5546C26.2133 80.4989 26.1713 80.4033 26.1033 80.3894L26.1073 80.3934Z" fill="black"/>
        <path d="M25.605 80.2142C24.9592 79.8319 24.1874 80.1126 23.4855 80.2301C22.7697 80.3496 22.0699 80.5546 21.3701 80.7438C20.2884 81.0344 19.2346 81.4087 18.1989 81.8288C17.1632 82.2488 16.2114 82.6908 15.2537 83.2025C13.854 83.951 12.5804 84.8469 11.2187 85.6393C10.5669 86.0196 11.1387 86.9632 11.8046 86.6387C13.1462 85.9837 14.5579 85.4362 15.9235 84.8091C16.8972 84.3612 17.875 83.9212 18.8787 83.5449C19.8825 83.1686 20.9502 82.8381 21.9839 82.4758C22.6278 82.2508 23.2836 82.0537 23.9114 81.787C24.5393 81.5202 25.3891 81.3092 25.721 80.6482C25.7989 80.4949 25.763 80.3058 25.607 80.2142H25.605Z" fill="black"/>
        <path d="M68.5514 83.6364C68.5645 83.6364 68.5645 83.6147 68.5514 83.6147C68.5382 83.6147 68.5382 83.6364 68.5514 83.6364Z" fill="black"/>
        <path d="M84.3 129.233C84.25 131.093 84.8059 132.781 85.3158 134.559C85.8256 136.337 86.3715 138.262 86.9913 140.069C87.2313 140.77 88.257 140.49 88.105 139.765C87.7131 137.901 87.1173 136.038 86.5554 134.218C85.9936 132.399 85.5457 130.736 84.562 129.163C84.488 129.044 84.304 129.094 84.3 129.233Z" fill="black"/>
        <path d="M87.1992 139.345C85.8476 139.727 84.442 139.97 83.0723 140.275C79.9971 140.958 76.9199 141.629 73.8487 142.333C66.9305 143.922 60.0103 145.503 53.092 147.099C51.4105 147.488 49.7389 147.936 48.0833 148.417C47.4595 148.599 47.7254 149.572 48.3533 149.389C49.6969 148.997 51.1446 148.871 52.5122 148.573C55.5894 147.902 58.6546 147.173 61.7258 146.476C68.648 144.904 75.5742 143.347 82.4825 141.706C84.154 141.31 85.8736 140.989 87.5212 140.496C88.259 140.275 87.9491 139.132 87.2012 139.343L87.1992 139.345Z" fill="black"/>
        <path d="M48.2074 149.075C48.2214 147.082 47.5915 145.264 47.0137 143.369C46.4358 141.473 45.87 139.389 45.1462 137.48C44.8862 136.793 43.9125 137.058 44.0445 137.782C44.4064 139.773 45.1522 141.786 45.774 143.709C46.3958 145.632 46.9237 147.438 47.9454 149.146C48.0174 149.266 48.2074 149.214 48.2074 149.077V149.075Z" fill="black"/>
        <path d="M44.9504 138.23C46.2961 137.854 47.7177 137.655 49.0873 137.378C52.2065 136.749 55.3277 136.134 58.4409 135.483C65.4271 134.025 72.4153 132.576 79.3995 131.111C81.0811 130.758 82.7706 130.364 84.4222 129.888C85.046 129.709 84.7801 128.735 84.1523 128.917C84.3022 128.873 83.9203 128.964 83.7764 128.988C83.4964 129.038 83.2165 129.088 82.9346 129.138C81.9508 129.309 80.9631 129.46 79.9833 129.653C76.8642 130.268 73.755 130.943 70.6398 131.584C63.6496 133.026 56.6574 134.451 49.6832 135.962C48.0116 136.325 46.2721 136.589 44.6305 137.075C43.8927 137.294 44.2026 138.437 44.9504 138.228V138.23Z" fill="black"/>
        <path d="M46.9459 52.1847C46.1701 53.1562 45.8162 54.5638 45.3763 55.7145C44.9364 56.8652 44.5206 58.006 44.1207 59.1627C43.4448 61.1157 42.833 63.0867 42.2271 65.0616C40.6855 70.0866 38.854 74.9583 36.6726 79.7463C36.3447 80.469 37.3744 80.909 37.6823 80.1704C39.6918 75.3624 41.5173 70.4888 43.0489 65.5096C43.6528 63.5446 44.2306 61.5716 44.8645 59.6166C45.2364 58.4679 45.6263 57.3251 46.0342 56.1883C46.472 54.9719 47.2119 53.632 47.3298 52.344C47.3458 52.1588 47.0659 52.0354 46.9459 52.1847Z" fill="black"/>
        <path d="M17.4952 82.6091C17.0793 82.4857 16.8034 82.2826 16.3315 82.2288C15.7236 82.1592 15.1178 82.0935 14.508 82.0517C12.7864 81.9302 11.0648 81.8088 9.34328 81.6853C6.49202 81.4823 3.65275 81.313 0.795491 81.2533C0.119665 81.2394 0.149657 82.2129 0.795491 82.2806C3.60477 82.5753 6.40604 82.8042 9.22532 82.9854C10.9229 83.0949 12.6184 83.2044 14.316 83.3119C14.9398 83.3517 15.5637 83.3716 16.1895 83.3855C16.6774 83.3975 17.0293 83.2243 17.4932 83.1486C17.7811 83.1008 17.7391 82.6808 17.4932 82.6091H17.4952Z" fill="black"/>
        <path d="M50.5267 59.1249C49.7629 60.0885 49.407 61.4244 48.9411 62.5512C48.4753 63.678 48.0174 64.7909 47.5615 65.9118C46.8537 67.6518 46.1858 69.4058 45.522 71.1637C44.4203 74.0803 43.3246 76.991 42.1469 79.8778C41.883 80.5248 42.9727 80.8413 43.2126 80.1704C44.2543 77.2737 45.2861 74.377 46.3718 71.4982C47.0136 69.796 47.6795 68.1017 48.3233 66.3995C48.7252 65.3384 49.1291 64.2793 49.537 63.2221C50.0169 61.9738 50.7807 60.6161 50.9106 59.2822C50.9286 59.097 50.6447 58.9736 50.5267 59.1229V59.1249Z" fill="black"/>
        <path d="M11.133 88.9759C10.5571 88.1836 9.22746 88.3727 8.33569 88.307C7.00803 88.2114 5.71036 88.1338 4.38071 88.1935C3.83085 88.2174 3.6429 89.0994 4.24274 89.2009C5.49042 89.4139 6.7201 89.5155 7.98378 89.5852C8.89154 89.6349 10.4052 90.049 11.089 89.3144C11.167 89.2308 11.2069 89.0775 11.133 88.9759Z" fill="black"/>
        <path d="M0.957472 81.9263C1.74927 80.915 2.11717 79.4756 2.57905 78.289C3.07093 77.0288 3.5488 75.7626 4.01468 74.4924C4.86846 72.1651 5.67825 69.8238 6.48405 67.4786C8.39555 61.9181 10.483 56.4512 12.9144 51.0917C13.2423 50.369 12.2146 49.9291 11.9046 50.6677C9.64923 56.0371 7.57976 61.4821 5.68425 66.9868C4.88046 69.3241 4.10266 71.6714 3.29287 74.0086C2.85298 75.2768 2.4011 76.541 1.93522 77.7993C1.46934 79.0575 0.709536 80.4332 0.573571 81.7671C0.555576 81.9502 0.839503 82.0757 0.957472 81.9263Z" fill="black"/>
        <path d="M12.3627 51.0859C12.8405 51.1695 13.2784 51.287 13.7383 51.4164C14.5661 51.6493 15.5338 51.6155 16.3876 51.6891C18.999 51.9161 21.6183 52.0555 24.2336 52.2307C29.9781 52.6169 35.7226 53.0708 41.4751 53.3276C43.1207 53.4013 44.7683 53.4431 46.4119 53.5466C47.0737 53.5884 47.0717 52.5611 46.4119 52.5193C42.4769 52.2744 38.5499 51.8663 34.6149 51.6015C28.8704 51.2153 23.1219 50.8311 17.3734 50.5006C16.3196 50.4409 15.2359 50.3373 14.1822 50.3572C13.6023 50.3692 13.0245 50.5066 12.4366 50.5344C12.1367 50.5484 12.0347 51.0282 12.3627 51.0839V51.0859Z" fill="black"/>
        <path d="M0.167841 82.006L0.091861 82.1215C-0.0221095 82.2967 -0.0401049 82.6053 0.091861 82.7785C1.54549 84.6857 2.82915 86.6069 3.96286 88.7371C4.25479 89.2846 5.04858 88.8028 4.78865 88.2573C3.78491 86.151 2.57522 84.0168 1.22157 82.1215C1.05561 81.8885 0.775685 81.7332 0.48376 81.8228C0.353793 81.8627 0.245821 81.8885 0.167841 82.006Z" fill="black"/>
        <path d="M46.3041 52.7521C46.7999 54.0283 47.5258 55.2407 48.1796 56.4432C48.7434 57.4844 49.2613 58.9477 50.2151 59.6704C50.467 59.8615 50.7169 59.547 50.6829 59.312C50.519 58.1812 49.4932 56.9947 48.9334 56.0032C48.2736 54.8366 47.7037 53.5923 46.9719 52.4714C46.7579 52.1449 46.1461 52.348 46.3041 52.7521Z" fill="black"/>
        <path d="M152.397 90.7182C151.543 91.4369 150.989 92.6175 150.401 93.5532C149.813 94.4889 149.179 95.5222 148.586 96.5156C147.476 98.3691 146.4 100.243 145.33 102.12C142.855 106.458 140.258 110.693 137.352 114.76C136.943 115.333 137.912 115.909 138.308 115.315C141.069 111.168 143.657 106.906 146.126 102.582C147.198 100.704 148.244 98.8151 149.319 96.9417C149.869 95.9821 150.429 95.0264 150.999 94.0788C151.569 93.1311 152.459 92.0541 152.778 90.9372C152.844 90.7082 152.567 90.5828 152.403 90.7202L152.397 90.7182Z" fill="black"/>
        <path d="M137.721 114.288C137.359 114.138 137.063 113.961 136.727 113.778C136.111 113.444 135.311 113.324 134.639 113.129C132.614 112.54 130.56 112.036 128.521 111.495C124.042 110.308 119.575 109.056 115.064 107.995C113.777 107.692 112.491 107.387 111.203 107.087C110.558 106.937 110.29 107.893 110.929 108.076C118.486 110.244 126.086 112.289 133.718 114.184C134.553 114.391 135.447 114.692 136.305 114.776C136.751 114.819 137.189 114.782 137.645 114.837C137.988 114.879 137.982 114.395 137.719 114.288H137.721Z" fill="black"/>
        <path d="M154.158 96.766C153.305 97.4848 152.751 98.6653 152.163 99.6011C151.575 100.537 150.941 101.57 150.347 102.563C149.238 104.417 148.162 106.29 147.092 108.168C144.617 112.506 142.019 116.74 139.114 120.808C138.704 121.381 139.674 121.957 140.07 121.363C142.831 117.216 145.419 112.954 147.888 108.63C148.96 106.752 150.005 104.863 151.081 102.99C151.631 102.03 152.191 101.074 152.761 100.127C153.331 99.179 154.22 98.1019 154.54 96.985C154.606 96.7561 154.328 96.6307 154.164 96.768L154.158 96.766Z" fill="black"/>
        <path d="M139.482 120.336C139.12 120.187 138.824 120.01 138.488 119.826C137.872 119.492 137.072 119.373 136.401 119.177C134.375 118.588 132.322 118.084 130.282 117.543C125.803 116.356 121.336 115.104 116.826 114.043C115.538 113.74 114.252 113.436 112.965 113.135C112.319 112.986 112.051 113.941 112.691 114.125C120.247 116.293 127.847 118.337 135.479 120.233C136.315 120.44 137.208 120.74 138.066 120.824C138.512 120.868 138.95 120.83 139.406 120.886C139.75 120.927 139.744 120.444 139.48 120.336H139.482Z" fill="black"/>
        <path d="M110.569 108.182C111.421 107.467 111.975 106.295 112.571 105.369C113.167 104.443 113.799 103.44 114.402 102.468C115.518 100.675 116.612 98.8668 117.702 97.0551C120.239 92.8385 122.88 88.7054 125.746 84.6998C126.155 84.1264 125.186 83.551 124.79 84.1443C122.066 88.2316 119.439 92.3865 116.908 96.5932C115.818 98.4029 114.752 100.227 113.671 102.042C113.113 102.98 112.549 103.914 111.977 104.843C111.375 105.825 110.511 106.852 110.194 107.963C110.128 108.192 110.405 108.317 110.569 108.18V108.182Z" fill="black"/>
        <path d="M125.193 84.6916C125.611 84.8629 125.817 84.9903 126.145 85.1774C126.725 85.5079 127.501 85.6194 128.139 85.8026C130.15 86.3799 132.186 86.8776 134.209 87.4052C138.738 88.5878 143.255 89.84 147.816 90.8972C149.131 91.2018 150.445 91.5064 151.761 91.813C152.406 91.9623 152.674 91.0067 152.034 90.8235C144.47 88.6555 136.846 86.6566 129.2 84.7872C128.363 84.5821 127.467 84.2855 126.609 84.2019C126.161 84.1581 125.723 84.1979 125.267 84.1442C124.924 84.1023 124.928 84.5861 125.193 84.6936V84.6916Z" fill="black"/>
        <path d="M110.499 107.621L110.417 107.704C110.215 107.911 110.169 108.24 110.315 108.493C111.249 110.093 111.847 111.826 112.399 113.593C112.581 114.177 113.471 113.938 113.321 113.341C112.859 111.511 112.157 109.759 111.507 107.993C111.415 107.742 111.175 107.489 110.877 107.515C110.745 107.527 110.597 107.519 110.497 107.623L110.499 107.621Z" fill="black"/>
        <path d="M137.192 114.425C137.055 115.54 137.554 116.542 137.886 117.597C138.242 118.728 138.544 119.89 138.974 120.997C139.224 121.638 140.172 121.401 140.022 120.709C139.758 119.49 139.318 118.298 138.912 117.119C138.558 116.088 138.344 115.051 137.542 114.278C137.402 114.143 137.21 114.254 137.19 114.423L137.192 114.425Z" fill="black"/>
        <path d="M151.799 91.15C152 92.2868 152.406 93.4096 152.752 94.5106C153.032 95.4005 153.202 96.4835 153.83 97.1903C154.024 97.4073 154.362 97.2241 154.374 96.9653C154.418 96.0157 153.84 94.9864 153.54 94.0925C153.19 93.0532 152.918 91.9702 152.504 90.9549C152.328 90.5228 151.717 90.6801 151.799 91.148V91.15Z" fill="black"/>
        <path d="M149.283 91.2614C150.663 89.9793 151.535 88.0681 152.535 86.4953C153.48 85.0081 154.19 83.4851 154.57 81.757C154.888 80.3116 155.19 78.6493 154.846 77.186C154.522 75.8043 153.636 74.6277 152.577 73.7079C150.097 71.5578 147.144 70.9605 143.997 71.7847C140.97 72.5791 138.358 74.3251 136.601 76.9112C134.663 79.7622 133.573 83.0949 131.694 85.9856C131.392 86.4495 132.11 87.0209 132.474 86.5849C135.815 82.5892 136.755 76.4912 141.631 73.8453C144.461 72.3103 147.774 71.7987 150.649 73.461C151.891 74.1798 153.02 75.1712 153.626 76.4912C154.294 77.9505 154.004 79.6527 153.686 81.1657C153.308 82.9714 152.523 84.584 151.657 86.2026C150.791 87.8212 149.519 89.3024 148.842 91.0026C148.738 91.2614 149.105 91.4207 149.279 91.2574L149.283 91.2614Z" fill="black"/>
        <path d="M145.07 89.9855C146.264 88.9005 147.152 87.2978 147.986 85.9321C148.751 84.6758 149.419 83.3181 149.687 81.8627C150.099 79.6051 149.539 76.792 146.95 76.2704C144.34 75.7468 142.477 77.6202 140.987 79.4677C140.05 80.6304 139.158 81.8249 138.33 83.0692C137.862 83.774 137.41 84.4887 136.976 85.2154C136.59 85.8624 136.107 86.5154 135.951 87.256C135.867 87.6522 136.345 87.9767 136.656 87.6641C137.456 86.8618 137.928 85.6135 138.522 84.648C139.188 83.5689 139.896 82.5138 140.627 81.4785C141.937 79.629 143.479 77.0807 146.036 77.017C147.274 76.9871 148.349 77.6082 148.695 78.8306C149.071 80.1586 148.677 81.4805 148.186 82.7208C147.694 83.9611 146.966 85.1138 146.41 86.3382C145.886 87.4909 145.206 88.6735 144.96 89.9238C144.948 89.9875 145.02 90.0333 145.07 89.9875V89.9855Z" fill="black"/>
        <path d="M41.965 53.2658C43.2347 51.3546 43.8765 48.9356 44.6903 46.8094C45.4501 44.8265 45.97 42.8754 46.056 40.7452C46.13 38.8957 46.11 36.7555 45.3622 35.0274C44.7523 33.6139 43.6486 32.493 42.3729 31.6509C40.7473 30.5778 38.8098 29.8671 36.8683 29.6899C34.8069 29.5008 32.8734 30.108 31.0339 30.9879C27.5368 32.6603 24.8135 35.4077 23.3098 38.9713C21.6543 42.8934 21.1244 47.1877 19.4748 51.1176C19.2569 51.6373 20.1207 51.9857 20.3826 51.4979C23.5538 45.6069 23.1839 37.7509 29.0004 33.4427C30.488 32.3397 32.2375 31.408 34.0331 30.9203C36.1565 30.3429 38.4259 30.7291 40.4094 31.6091C41.8491 32.2482 43.2087 33.2038 44.0585 34.5516C45.0482 36.1204 45.0922 38.0774 45.0862 39.8792C45.0782 42.1448 44.5344 44.2352 43.8785 46.3873C43.2227 48.5395 42.021 50.7812 41.4872 53.0627C41.4192 53.3554 41.8031 53.5127 41.967 53.2638L41.965 53.2658Z" fill="black"/>
        <path d="M36.5726 52.7441C37.6123 51.1494 38.2541 49.1964 38.908 47.4146C39.5618 45.6327 40.1096 43.825 40.1296 41.9257C40.1596 39.0748 38.85 35.7222 35.5428 35.7381C32.2997 35.754 30.5341 38.4576 29.1925 41.0159C28.3027 42.7121 27.4889 44.4422 26.7611 46.2141C26.3812 47.1358 26.0253 48.0676 25.6894 49.0053C25.3894 49.8454 24.9756 50.7254 24.9456 51.6233C24.9316 52.0573 25.5154 52.1727 25.7314 51.8343C26.1512 51.1793 26.3132 50.363 26.5651 49.6304C26.8171 48.8978 27.061 48.2209 27.3269 47.5241C27.9328 45.9334 28.6046 44.3645 29.3264 42.8236C30.4981 40.3211 31.8018 37.1178 34.895 36.624C36.4326 36.3792 37.8082 36.9804 38.4921 38.4118C39.2559 40.0125 39.0719 41.858 38.726 43.5423C38.4021 45.1231 37.8222 46.6361 37.4303 48.199C37.0384 49.7618 36.5486 51.1793 36.4486 52.7103C36.4446 52.778 36.5386 52.7939 36.5706 52.7441H36.5726Z" fill="black"/>
        <path d="M129.148 97.3933C131.054 96.5591 133.071 96.147 135.151 96.137L134.719 95.3885C132.406 98.6376 130.094 101.885 127.781 105.134C127.409 105.657 128.275 106.155 128.645 105.635C130.958 102.386 133.269 99.1393 135.583 95.8902C135.807 95.5756 135.505 95.1396 135.151 95.1416C132.886 95.1536 130.716 95.6274 128.643 96.5352C128.055 96.792 128.563 97.6501 129.146 97.3953L129.148 97.3933Z" fill="black"/>
        <path d="M75.1606 27.4281C75.6825 28.9352 76.8202 30.3229 77.644 31.6846C78.4678 33.0464 79.1976 34.2887 79.9554 35.6026C81.451 38.1928 82.9046 40.8088 84.3882 43.4069C87.7714 49.3337 91.3165 55.1689 95.1275 60.833C95.5234 61.4223 96.4911 60.8549 96.0832 60.2775C92.1263 54.6931 88.5712 48.8857 85.182 42.947C83.6984 40.3489 82.2168 37.7508 80.6852 35.1806C79.9094 33.8786 79.1216 32.5805 78.3198 31.2944C77.518 30.0083 76.7002 28.3021 75.5365 27.2131C75.3826 27.0698 75.0846 27.2091 75.1606 27.4301V27.4281Z" fill="black"/>
        <path d="M95.9289 60.1621C96.4467 60.0804 96.9426 60.0406 97.4605 60.0088C98.4302 59.9491 99.444 59.5748 100.388 59.3458C103.213 58.6629 106.018 57.8905 108.832 57.1559C114.98 55.5512 121.148 54.0083 127.263 52.2822C129.004 51.7905 130.74 51.2629 132.491 50.809C133.133 50.6417 132.861 49.6523 132.217 49.8195C127.945 50.9284 123.644 51.9199 119.371 53.0348C113.222 54.6414 107.072 56.244 100.938 57.9044C99.8019 58.211 98.6122 58.4778 97.5025 58.874C96.9146 59.083 96.3687 59.4055 95.7769 59.6245C95.433 59.75 95.571 60.2198 95.9269 60.1641L95.9289 60.1621Z" fill="black"/>
        <path d="M72.7392 35.736C73.2611 37.2431 74.3988 38.6307 75.2226 39.9925C76.0464 41.3542 76.7762 42.5965 77.534 43.9105C79.0296 46.5006 80.4832 49.1166 81.9669 51.7147C85.35 57.6416 88.8951 63.4768 92.7061 69.1408C93.102 69.7301 94.0697 69.1627 93.6618 68.5854C89.7049 63.001 86.1498 57.1936 82.7607 51.2548C81.277 48.6568 79.7954 46.0587 78.2638 43.4884C77.488 42.1864 76.7002 40.8884 75.8984 39.6023C75.0966 38.3162 74.2788 36.61 73.1151 35.521C72.9612 35.3776 72.6633 35.517 72.7392 35.738V35.736Z" fill="black"/>
        <path d="M93.508 68.4699C94.0258 68.3883 94.5217 68.3485 95.0396 68.3166C96.0093 68.2569 97.0231 67.8826 97.9668 67.6537C100.792 66.9708 103.597 66.1984 106.411 65.4637C112.559 63.8591 118.727 62.3162 124.842 60.5901C126.583 60.0983 128.319 59.5707 130.071 59.1168C130.712 58.9496 130.44 57.9601 129.797 58.1274C125.524 59.2363 121.223 60.2277 116.95 61.3426C110.802 62.9492 104.651 64.5519 98.5167 66.2123C97.381 66.5189 96.1913 66.7857 95.0816 67.1818C94.4937 67.3909 93.9478 67.7134 93.356 67.9324C93.0121 68.0578 93.1501 68.5277 93.506 68.4719L93.508 68.4699Z" fill="black"/>
        <path d="M133.476 50.8589C132.962 49.3598 131.816 47.9781 130.984 46.6343C130.199 45.3621 129.423 44.084 128.653 42.7999C127.149 40.2914 125.668 37.769 124.16 35.2624C120.691 29.4989 117.09 23.809 113.331 18.2266C112.935 17.6373 111.967 18.2047 112.375 18.782C116.276 24.2828 119.891 29.9488 123.366 35.7223C124.876 38.2288 126.384 40.7354 127.923 43.2239C128.711 44.4961 129.505 45.7643 130.309 47.0265C131.154 48.3544 131.936 49.9969 133.1 51.0759C133.254 51.2193 133.552 51.0799 133.476 50.8589Z" fill="black"/>
        <path d="M112.779 18.2343C112.259 18.3159 111.765 18.3538 111.243 18.3856C110.271 18.4434 109.256 18.8156 108.31 19.0406C105.479 19.7155 102.667 20.478 99.8481 21.2027C93.6877 22.7874 87.5053 24.3105 81.3769 26.0186C79.6313 26.5044 77.8918 27.024 76.1383 27.4799C75.4964 27.6472 75.7683 28.6366 76.4122 28.4694C80.6891 27.3605 85.004 26.3929 89.2829 25.29C95.4433 23.7032 101.608 22.1205 107.754 20.48C108.892 20.1754 110.085 19.9126 111.195 19.5204C111.783 19.3134 112.331 18.9908 112.923 18.7738C113.267 18.6484 113.129 18.1786 112.773 18.2343H112.779Z" fill="black"/>
        <path d="M132.828 50.3549L132.664 50.3589C132.45 50.3648 132.194 50.4743 132.098 50.6814C130.996 53.0863 130.099 55.7024 129.433 58.2646C129.279 58.8599 130.177 59.1047 130.354 58.5174C131.114 56.0089 132.074 53.6776 133.228 51.3384C133.324 51.1433 133.37 50.8725 133.228 50.6814C133.126 50.544 133.028 50.3489 132.828 50.3549Z" fill="black"/>
        <path d="M96.015 59.6068C95.5511 60.2458 95.2992 60.642 95.0333 61.3946C94.7533 62.1849 94.4794 62.9793 94.2115 63.7737C93.6996 65.2907 93.1298 66.8296 92.7858 68.3945C92.6339 69.0853 93.5876 69.3262 93.8336 68.6831C94.4094 67.184 94.8133 65.6033 95.2992 64.0723C95.5331 63.3357 95.7731 62.599 96.017 61.8644C96.2829 61.0641 96.3569 60.5305 96.3989 59.7103C96.4109 59.4893 96.125 59.4555 96.015 59.6068Z" fill="black"/>
        <path d="M75.5784 27.5161C75.0246 28.8858 74.6727 30.3591 74.2068 31.7627C73.9828 32.4376 73.7529 33.1105 73.5189 33.7834C73.285 34.4563 72.9651 35.0456 72.9991 35.7344C73.0111 35.9913 73.349 36.1764 73.5429 35.9594C74.3827 35.0197 74.6167 33.3633 74.9926 32.1807C75.4544 30.7214 76.0123 29.2203 76.2842 27.7112C76.3682 27.2454 75.7544 27.0841 75.5784 27.5181V27.5161Z" fill="black"/>
        <path d="M80.3534 27.5119C79.3476 25.3797 77.826 23.4705 76.6663 21.4139C75.5786 19.4847 74.5389 17.5058 73.949 15.3636C73.4192 13.4345 72.8953 11.1012 73.2572 9.10236C73.6191 7.10352 74.8208 5.57652 76.3084 4.382C78.02 3.0083 80.1674 1.97702 82.3769 1.79187C84.5863 1.60672 86.7017 2.20199 88.6552 2.96052C92.5063 4.45367 95.1516 7.39618 97.1091 10.93C99.0586 14.4518 100.524 18.1927 103.088 21.3442C103.441 21.7782 104.183 21.2088 103.867 20.745C101.578 17.3685 100.152 13.534 98.1288 10.0102C96.1053 6.48635 93.1981 3.61153 89.2691 2.05467C87.1436 1.21253 84.6803 0.575451 82.3749 0.788475C80.2334 0.985571 78.2039 1.8735 76.4704 3.11979C74.9108 4.24065 73.5172 5.67606 72.7713 7.46785C71.9795 9.37112 72.2095 11.3799 72.5174 13.3648C72.9153 15.931 73.7631 18.3599 75.1227 20.5757C76.6044 22.9927 77.972 25.764 79.9395 27.8285C80.1554 28.0555 80.4734 27.7688 80.3514 27.5119H80.3534Z" fill="black"/>
        <path d="M85.7836 26.0643C84.7759 22.6002 82.4585 19.6099 81.1628 16.2533C80.541 14.6447 80.0731 12.9485 80.415 11.2224C80.7889 9.33505 82.1965 8.2341 84.0881 8.17836C87.5792 8.07881 89.7146 11.3419 91.5281 13.8344C92.6039 15.3136 93.6356 16.8307 94.6073 18.3816C95.0612 19.1043 95.5011 19.8369 95.927 20.5755C96.3529 21.3141 96.7288 22.1881 97.3246 22.8451C97.6166 23.1676 98.1304 22.8252 98.0305 22.437C97.6466 20.9438 96.4989 19.4746 95.6831 18.1805C94.8053 16.7849 93.8815 15.4192 92.8998 14.0932C91.2482 11.8655 89.4727 9.10212 86.8553 7.91755C84.8959 7.03161 82.2245 7.09532 80.6729 8.75173C78.7934 10.7585 79.1613 14.3799 80.0271 16.7431C80.6369 18.4075 81.5107 19.9285 82.4345 21.4356C83.4122 23.0283 84.404 24.7504 85.6756 26.1281C85.7196 26.1758 85.8036 26.1261 85.7856 26.0643H85.7836Z" fill="black"/>
        <path d="M24.6233 60.672C21.958 65.2869 21.792 70.7538 19.7125 75.5916C19.4626 76.1749 20.3224 76.6826 20.5763 76.0933C22.6518 71.2635 22.8317 65.7706 25.4871 61.1737C25.809 60.6183 24.9452 60.1146 24.6233 60.672Z" fill="black"/>
        <path d="M16.0175 65.5913C20.8803 67.7354 26.0289 69.0614 31.3276 69.5272C31.9674 69.583 31.9654 68.5875 31.3276 68.5318C26.2169 68.0819 21.2142 66.8017 16.5234 64.7332C15.9395 64.4764 15.4317 65.3345 16.0195 65.5933L16.0175 65.5913Z" fill="black"/>
        <path d="M28.4468 63.2659C24.8777 65.4837 21.3066 67.7015 17.7375 69.9214C17.1937 70.2598 17.6935 71.1219 18.2414 70.7814C21.8105 68.5636 25.3816 66.3458 28.9506 64.1259C29.4945 63.7875 28.9946 62.9254 28.4468 63.2659Z" fill="black"/>
        <path d="M19.3926 62.9811C21.61 66.5368 24.0594 69.9372 26.7187 73.1783C27.1266 73.6741 27.8304 72.9673 27.4265 72.4736C24.8192 69.3001 22.4298 65.9614 20.2564 62.4774C19.9185 61.9339 19.0527 62.4336 19.3926 62.9791V62.9811Z" fill="black"/>
        <path d="M132.046 0.204905C131.262 1.49499 130.33 2.71739 129.326 3.84621C128.323 4.97503 127.205 5.86893 126.227 6.95197C125.775 7.45367 126.009 8.1007 126.595 8.33762C128.225 9.00058 129.37 10.7008 130.218 12.1561C131.112 13.6871 131.808 15.3156 132.476 16.9541L133.927 16.3449C133.227 14.6984 134.641 12.624 135.591 11.3777C136.641 10.002 137.96 8.78158 139.328 7.72045H138.338L138.412 7.97329L139.302 7.74035C136.878 6.58366 132.592 4.25832 133.751 0.967409C133.933 0.451773 133.219 0.0894346 132.857 0.449782C131.39 1.91506 131.988 4.02141 133.197 5.45284C134.651 7.17296 136.724 8.1883 138.8 8.92293C139.156 9.04836 139.48 8.7776 139.6 8.471C139.814 7.92351 139.768 7.36408 139.438 6.87432C139.222 6.55579 138.83 6.43434 138.48 6.62348C135.163 8.4292 130.488 13.042 132.556 17.1393C133.023 18.067 134.321 17.2527 133.927 16.3409C133.145 14.5233 132.35 12.6817 131.248 11.0273C130.146 9.37287 128.871 8.18233 127.405 6.94799L127.237 8.25002C130.084 6.75686 131.916 3.46993 132.851 0.537381C133.005 0.0555898 132.302 -0.21915 132.046 0.198933V0.204905Z" fill="black"/>
        <path d="M144.656 18.1927C144.197 18.4097 143.929 18.8357 143.601 19.206C143.205 19.652 142.771 19.9566 142.273 20.2731C141.311 20.8863 141.917 22.4113 143.057 22.1227C143.815 21.9315 144.051 23.6497 144.137 24.0717C144.297 24.8402 145.558 25.0512 145.898 24.3007C146.118 23.8149 146.812 22.1027 147.51 22.2859C148.208 22.4691 148.505 21.5692 147.984 21.169C147 20.4165 146.284 19.6261 145.772 18.4893C145.314 17.476 143.993 18.2723 144.123 19.1821C144.241 20.0064 144.277 20.6813 144.644 21.4557C145.012 22.2302 146.266 21.6707 145.98 20.8943C145.832 20.4941 145.582 19.8292 145.772 19.3972H144.215C144.802 20.7689 146.02 21.9594 147.512 22.2879L147.838 21.1093C146.082 20.8107 144.972 21.8061 144.235 23.3351L145.996 23.564C145.628 21.8081 144.778 20.2313 142.787 20.1378L143.301 22.0231C144.482 21.4776 146.052 19.7396 145.312 18.3639C145.182 18.123 144.884 18.0872 144.658 18.1927H144.656Z" fill="black"/>
        <path d="M52.2825 139.835C51.7726 138.993 50.7728 139.16 50.191 139.845C49.5292 140.625 49.4272 141.822 49.7071 142.773C50.339 144.924 52.9823 146.086 54.5899 144.169C54.9998 143.681 54.2959 142.973 53.882 143.464C53.0743 144.428 51.8346 144.332 51.0928 143.337C50.8008 142.947 50.6309 142.503 50.5829 142.019C50.5569 141.77 50.5609 141.547 50.6109 141.302C50.6309 141.205 51.0968 139.807 51.4167 140.337C51.7366 140.866 52.6124 140.384 52.2805 139.835H52.2825Z" fill="black"/>
        <path d="M55.2895 138.841C54.0478 139.347 53.6219 140.649 54.0778 141.875C54.4737 142.943 55.4475 144.193 56.7411 143.912C57.9048 143.659 58.5587 142.512 58.3707 141.378C58.1368 139.966 56.9451 139.142 55.7034 138.638C55.1076 138.397 54.8496 139.359 55.4375 139.598C56.0253 139.837 56.6092 140.159 57.0011 140.679C57.415 141.228 57.6409 142.154 57.0411 142.676C55.6894 143.852 53.8879 140.48 55.5574 139.801C56.1453 139.562 55.8874 138.598 55.2915 138.841H55.2895Z" fill="black"/>
        <path d="M60.4765 142.304C59.8347 140.992 59.5108 139.618 59.4808 138.161L58.729 138.591C59.6467 139.256 60.5625 139.924 61.4822 140.587C62.1421 141.065 62.7579 141.509 63.6077 141.485C63.9896 141.475 64.2255 141.071 64.0396 140.737C63.4417 139.664 63.1798 138.541 63.2238 137.318C63.2418 136.793 62.556 136.685 62.292 137.068L62.1441 137.283C61.7782 137.812 62.6439 138.31 63.0078 137.784L63.1558 137.569L62.2241 137.318C62.1741 138.716 62.496 140.018 63.1758 141.24L63.6077 140.492C62.7759 140.516 62.0141 139.749 61.3763 139.285C60.6625 138.768 59.9486 138.25 59.2348 137.733C58.9229 137.508 58.475 137.81 58.483 138.163C58.517 139.801 58.8969 141.334 59.6167 142.807C59.8987 143.383 60.7604 142.879 60.4805 142.306L60.4765 142.304Z" fill="black"/>
        <path d="M64.5992 137.718C65.7589 137.521 66.9186 137.322 68.0763 137.125C68.7102 137.018 68.4402 136.058 67.8104 136.166C66.6507 136.363 65.491 136.562 64.3333 136.759C63.6995 136.866 63.9694 137.826 64.5992 137.718Z" fill="black"/>
        <path d="M65.4812 137.422C65.8491 138.69 66.381 139.895 67.0748 141.02C67.4107 141.565 68.2765 141.065 67.9386 140.518C67.2868 139.461 66.7909 138.35 66.445 137.159C66.267 136.544 65.3013 136.807 65.4812 137.424V137.422Z" fill="black"/>
        <path d="M68.7963 136.582C69.3161 137.8 69.836 139.019 70.3559 140.239C70.6058 140.826 71.4676 140.321 71.2197 139.737C70.6998 138.519 70.1799 137.301 69.6601 136.08C69.4101 135.493 68.5483 135.999 68.7963 136.582Z" fill="black"/>
        <path d="M72.9589 139.269C72.413 138.214 71.8971 137.161 71.5932 136.008L70.7574 136.492C72.369 137.822 74.2165 138.728 76.27 139.15C76.6259 139.223 77.0058 138.921 76.8858 138.537C76.5039 137.312 76.0741 136.108 75.5942 134.917C75.3582 134.33 74.3905 134.587 74.6304 135.182C75.1083 136.373 75.5382 137.577 75.9221 138.801L76.5379 138.188C74.6584 137.802 72.9469 137.006 71.4672 135.785C71.0973 135.481 70.4975 135.757 70.6315 136.269C70.9574 137.505 71.5112 138.636 72.0971 139.767C72.391 140.336 73.2548 139.835 72.9609 139.265L72.9589 139.269Z" fill="black"/>
        <path d="M76.5603 135.031C76.8342 136.413 78.0839 139.594 80.0494 138.314C80.1894 138.222 80.3113 138.061 80.2973 137.884C80.1874 136.608 79.8674 135.407 79.3336 134.243C79.0657 133.661 78.2039 134.167 78.4698 134.744C78.9277 135.74 79.2036 136.791 79.2976 137.882L79.5455 137.452C78.4058 138.193 77.662 135.457 77.5241 134.764C77.4001 134.137 76.4363 134.402 76.5603 135.029V135.031Z" fill="black"/>
        <path d="M80.1652 134.629C80.871 135.716 80.1052 137.173 81.117 138.199C81.4569 138.541 81.9128 138.704 82.3926 138.617C83.0025 138.505 83.3724 137.982 83.9382 137.784C84.5421 137.575 84.2822 136.612 83.6723 136.825C83.2504 136.972 82.9605 137.227 82.5886 137.458C82.0327 137.8 81.6708 137.478 81.5209 136.883C81.2809 135.933 81.5988 135.007 81.029 134.127C80.6811 133.592 79.8153 134.089 80.1652 134.629Z" fill="black"/>
        <path d="M81.2629 136.564C81.8867 136.303 82.5106 136.042 83.1344 135.783C83.3844 135.678 83.5583 135.455 83.4843 135.17C83.4223 134.935 83.1184 134.718 82.8685 134.822C82.2447 135.082 81.6208 135.343 80.997 135.602C80.747 135.708 80.5731 135.931 80.6471 136.215C80.709 136.45 81.013 136.667 81.2629 136.564Z" fill="black"/>
        <path d="M80.8847 134.34C81.5945 134.027 82.2924 133.689 82.9762 133.321C83.542 133.016 83.0382 132.156 82.4723 132.461C81.7885 132.829 81.0927 133.167 80.3809 133.48C79.793 133.739 80.3009 134.595 80.8847 134.34Z" fill="black"/>
        <path d="M6.3643 98.8409C6.98414 100.641 7.36404 102.542 7.86591 104.378C8.36778 106.213 8.96962 108.178 9.49349 110.087C10.5252 113.844 11.441 117.633 12.6287 121.344C12.7866 121.835 13.4625 121.624 13.3885 121.135C12.8046 117.27 11.7329 113.516 10.5512 109.795C9.96936 107.969 9.39151 106.133 8.70369 104.344C8.01587 102.554 7.08611 100.694 6.38429 98.8329C6.38029 98.821 6.3603 98.827 6.3643 98.8389V98.8409Z" fill="black"/>
        <path d="M117.31 147.886L137.191 175.364L135.011 183.6L100.758 194.289L81.0791 166.53L83.4665 159.039L87.7554 157.655L117.31 147.886Z" fill="#9BE887"/>
        <path d="M109.17 149.703C109.17 149.703 100.764 136.44 95.8554 134.298C90.9467 132.156 85.3041 133.514 82.7888 136.004C80.2714 138.497 79.1357 142.705 80.6853 146.472C82.2349 150.239 87.4716 157.884 87.4716 157.884C87.4716 157.884 93.594 156.094 93.424 155.843C93.2541 155.592 86.8017 147.183 86.5118 145.065C86.2239 142.946 87.2036 139.98 89.2531 139.415C91.3026 138.849 94.0859 139.48 96.7192 142.449C99.3505 145.419 103.413 152.088 103.413 152.088L109.17 149.701V149.703Z" fill="#9BE887"/>
        <path d="M82.1024 158.861C82.6163 160.211 83.796 161.426 84.6258 162.606C85.4556 163.787 86.2634 164.962 87.0632 166.152C88.4868 168.27 89.8804 170.409 91.2981 172.531C94.7032 177.631 98.2763 182.617 102.029 187.468C102.513 188.093 103.407 187.425 102.897 186.801C98.9761 182.003 95.381 177.002 91.9439 171.852C90.5243 169.724 89.1006 167.599 87.639 165.499C86.8132 164.314 85.9754 163.136 85.1237 161.969C84.2719 160.803 83.5361 159.449 82.4324 158.611C82.2804 158.495 82.0345 158.688 82.1024 158.863V158.861Z" fill="black"/>
        <path d="M102.777 186.815C103.277 186.706 103.759 186.64 104.263 186.574C105.173 186.455 106.099 186.043 106.972 185.77C109.596 184.95 112.193 184.042 114.8 183.172C120.559 181.249 126.345 179.387 132.062 177.345C133.683 176.765 135.299 176.15 136.933 175.607C137.558 175.398 137.29 174.406 136.659 174.617C132.65 175.949 128.605 177.163 124.598 178.503C118.847 180.427 113.087 182.334 107.356 184.319C106.29 184.687 105.139 185.004 104.119 185.485C103.589 185.736 103.103 186.061 102.561 186.306C102.26 186.443 102.481 186.883 102.777 186.817V186.815Z" fill="black"/>
        <path d="M80.3354 166.915C80.8472 168.259 82.0289 169.467 82.8667 170.636C83.7045 171.805 84.5123 172.945 85.3261 174.108C86.7617 176.161 88.1833 178.221 89.627 180.268C93.1241 185.221 96.7471 190.085 100.458 194.879C100.942 195.504 101.836 194.835 101.326 194.212C97.4529 189.476 93.7979 184.594 90.2728 179.597C88.8252 177.544 87.3755 175.496 85.9019 173.461C85.0641 172.302 84.2184 171.15 83.3646 170.001C82.5108 168.852 81.769 167.5 80.6653 166.664C80.5133 166.549 80.2674 166.742 80.3354 166.917V166.915Z" fill="black"/>
        <path d="M101.01 194.869C101.51 194.759 101.992 194.694 102.495 194.628C103.405 194.508 104.331 194.096 105.205 193.824C107.828 193.003 110.425 192.095 113.033 191.225C118.791 189.302 124.578 187.441 130.294 185.398C131.916 184.819 133.531 184.204 135.165 183.66C135.791 183.451 135.523 182.46 134.891 182.671C130.882 184.003 126.837 185.217 122.83 186.557C117.08 188.48 111.319 190.387 105.589 192.372C104.523 192.74 103.371 193.057 102.351 193.539C101.822 193.79 101.336 194.114 100.794 194.359C100.492 194.496 100.714 194.936 101.01 194.871V194.869Z" fill="black"/>
        <path d="M137.013 175.053C136.505 173.719 135.341 172.521 134.517 171.354C133.693 170.187 132.936 169.086 132.16 167.942C130.816 165.955 129.5 163.948 128.163 161.959C124.868 157.06 121.397 152.282 117.786 147.609C117.304 146.984 116.408 147.655 116.918 148.276C120.693 152.889 124.184 157.679 127.507 162.622C128.849 164.619 130.194 166.614 131.576 168.585C132.378 169.728 133.19 170.862 134.013 171.987C134.837 173.112 135.587 174.478 136.683 175.306C136.837 175.421 137.081 175.228 137.013 175.053Z" fill="black"/>
        <path d="M117.234 147.615C116.734 147.725 116.252 147.791 115.748 147.856C114.838 147.976 113.913 148.388 113.039 148.661C110.416 149.481 107.818 150.389 105.211 151.259C99.4524 153.182 93.6659 155.043 87.9493 157.086C86.3277 157.665 84.7122 158.28 83.0786 158.824C82.4527 159.033 82.7207 160.024 83.3525 159.813C87.3615 158.481 91.4064 157.267 95.4134 155.927C101.164 154.004 106.924 152.097 112.655 150.112C113.721 149.744 114.872 149.427 115.892 148.945C116.422 148.694 116.908 148.37 117.45 148.125C117.752 147.988 117.53 147.548 117.234 147.613V147.615Z" fill="black"/>
        <path d="M137.266 175.107L137.126 175.121C136.813 175.153 136.607 175.306 136.497 175.599C135.627 177.902 134.969 180.401 134.513 182.824C134.401 183.419 135.295 183.68 135.435 183.077C136.009 180.598 136.793 178.284 137.756 175.943C137.846 175.724 137.728 175.473 137.588 175.31C137.506 175.217 137.412 175.091 137.266 175.105V175.107Z" fill="black"/>
        <path d="M102.835 186.248C102.039 187.347 101.867 188.635 101.59 189.951C101.312 191.267 100.974 192.685 100.774 194.058C100.676 194.729 101.612 195.032 101.821 194.347C102.227 193.019 102.419 191.613 102.677 190.25C102.935 188.886 103.337 187.683 103.219 186.352C103.201 186.143 102.957 186.079 102.835 186.248Z" fill="black"/>
        <path d="M82.5108 158.901C82.0709 160.241 81.829 161.663 81.4751 163.03C81.3131 163.656 81.1472 164.279 80.9752 164.9C80.7953 165.555 80.5033 166.206 80.5813 166.887C80.6073 167.12 80.9352 167.355 81.1252 167.112C81.901 166.112 82.0249 164.476 82.3189 163.261C82.6568 161.862 83.0687 160.43 83.2286 158.999C83.2766 158.575 82.6328 158.531 82.5108 158.901Z" fill="black"/>
        <path d="M88.243 158.029C87.1832 156.088 85.6256 154.394 84.4079 152.547C83.2363 150.771 82.0945 148.925 81.3887 146.908C80.7769 145.164 80.175 143.066 80.299 141.205C80.423 139.343 81.5247 137.573 82.9203 136.299C84.386 134.959 86.2195 133.904 88.183 133.52C90.3204 133.104 92.6398 133.564 94.6833 134.227C98.3244 135.407 100.97 137.973 103.007 141.121C105.105 144.36 106.742 147.86 109.402 150.705C109.849 151.185 110.483 150.494 110.103 150.006C107.704 146.92 106.116 143.323 103.933 140.1C101.749 136.876 98.7023 134.318 94.8013 133.144C92.7738 132.532 90.5044 132.14 88.3929 132.475C86.2815 132.809 84.5359 133.783 82.9643 135.057C81.5447 136.209 80.317 137.683 79.7152 139.425C79.0513 141.346 79.4392 143.369 79.8931 145.296C80.445 147.631 81.3947 149.815 82.7904 151.772C84.35 153.96 85.8256 156.536 87.8331 158.348C88.053 158.545 88.3909 158.298 88.245 158.031L88.243 158.029Z" fill="black"/>
        <path d="M93.2979 156.301C92.2002 153.194 89.9428 150.562 88.4752 147.623C87.7214 146.112 87.0875 144.48 87.2315 142.767C87.3894 140.892 88.5791 139.644 90.4547 139.435C93.7878 139.064 96.0272 142.027 97.9247 144.291C99.0524 145.636 100.138 147.02 101.168 148.443C101.66 149.122 102.138 149.809 102.604 150.506C103.069 151.203 103.433 151.941 104.025 152.499C104.319 152.776 104.861 152.505 104.731 152.091C104.293 150.711 103.107 149.385 102.262 148.222C101.416 147.06 100.486 145.849 99.5343 144.717C97.7948 142.648 95.8813 140.056 93.2899 139.013C91.3484 138.23 88.7491 138.431 87.3355 140.124C85.6979 142.083 86.1918 145.393 87.0875 147.562C87.7514 149.162 88.7071 150.576 89.6969 151.989C90.7426 153.482 91.8483 155.123 93.19 156.365C93.2339 156.407 93.3219 156.365 93.2999 156.301H93.2979Z" fill="black"/>
        <path d="M111.869 159.439C109.821 164.496 108.172 169.696 106.93 175.005C106.784 175.629 107.748 175.895 107.894 175.27C109.133 169.961 110.783 164.76 112.833 159.704C113.072 159.11 112.107 158.852 111.869 159.439Z" fill="black"/>
        <path d="M103.177 165.055C107.97 166.541 112.607 168.446 117.057 170.759C117.627 171.056 118.133 170.196 117.561 169.899C113.037 167.548 108.316 165.607 103.443 164.096C102.827 163.905 102.563 164.866 103.177 165.055Z" fill="black"/>
        <path d="M106.716 161.967C108.252 165.879 109.97 169.718 111.869 173.466C112.159 174.038 113.023 173.534 112.733 172.965C110.871 169.292 109.184 165.537 107.68 161.702C107.448 161.113 106.482 161.37 106.716 161.967Z" fill="black"/>
        <path d="M105.365 168.651C108.876 167.823 112.191 166.387 115.19 164.386C115.722 164.032 115.222 163.17 114.686 163.526C111.753 165.481 108.534 166.881 105.101 167.689C104.475 167.837 104.741 168.796 105.367 168.649L105.365 168.651Z" fill="black"/>
        <path d="M135.535 163.524C135.921 167.377 139.33 170.017 141.293 173.103C141.743 173.809 142.239 174.558 142.609 175.304C143.177 176.457 142.627 177.781 142.095 178.864C140.732 181.645 139.348 184.389 138.138 187.242C137.948 187.692 138.556 188.088 138.818 187.638C140.376 184.948 141.979 182.191 143.157 179.31C143.407 178.695 143.651 178.044 143.717 177.379C143.763 176.913 143.669 176.459 143.671 175.989C143.677 175.083 143.743 174.206 143.357 173.357C141.647 169.599 137.538 167.51 136.345 163.417C136.221 162.991 135.487 163.049 135.535 163.526V163.524Z" fill="black"/>
        <path d="M101.849 30.2532C99.2921 29.9566 96.4349 31.4736 95.6571 34.0199C95.2831 35.2443 95.679 36.4448 96.6908 37.2193C97.8525 38.1072 99.3261 38.1371 100.7 37.7946C102.993 37.2213 106.314 35.6067 105.878 32.7517C105.479 30.1278 102.351 29.2697 100.476 30.9958C100.002 31.4318 100.71 32.1346 101.184 31.7006C102.935 30.0899 105.734 31.9474 104.697 34.1593C103.953 35.744 101.691 36.6001 100.086 36.9166C99.0482 37.1217 97.8885 37.0261 97.0927 36.2597C96.2029 35.4016 96.5048 34.1892 97.1467 33.2674C98.1984 31.7563 100.054 31.0416 101.851 31.2506C102.489 31.3243 102.483 30.3289 101.851 30.2552L101.849 30.2532Z" fill="black"/>
        <path d="M102.595 36.2497C101.144 36.4348 100.126 37.3168 99.362 38.5252C98.4822 39.9168 97.7264 41.7325 97.5205 43.3591C97.1306 46.4409 99.51 49.3794 102.487 50.0265C105.838 50.7532 109.185 49.037 111.023 46.2598C112.639 43.8189 113.944 39.3654 111.345 37.1276C109.895 35.8793 107.76 35.4832 105.9 35.4254C103.795 35.3597 101.729 35.8594 99.8519 36.7912C99.276 37.0779 99.7819 37.9359 100.356 37.6512C102.081 36.7951 103.971 36.3631 105.9 36.4209C107.622 36.4726 109.893 36.8449 111.063 38.2485C112.233 39.652 111.783 42.0351 111.203 43.6637C110.623 45.2922 109.505 46.9605 107.98 47.9779C104.975 49.9867 100.526 49.4989 98.9141 45.977C98.0623 44.1176 98.7002 42.2581 99.468 40.4882C100.06 39.1225 100.952 37.4501 102.595 37.2411C103.225 37.1615 103.233 36.164 102.595 36.2457V36.2497Z" fill="black"/>
        <path d="M54.7778 52.806C55.9695 54.3489 56.9152 55.9973 57.4411 57.8827C57.9669 59.768 57.921 61.7908 57.623 63.7757C57.5431 64.3092 58.2849 64.5461 58.4548 64.0046C59.6705 60.1244 58.1449 55.197 54.9697 52.6606C54.8717 52.583 54.6858 52.6885 54.7778 52.808V52.806Z" fill="black"/>
        <path d="M60.5082 53.7934C61.6619 55.9037 62.0578 58.4679 62.5716 60.7873C62.6356 61.078 63.0895 61.0103 63.0875 60.7176C63.0735 58.0499 61.9278 55.9634 60.5901 53.7456C60.5581 53.6938 60.4802 53.7396 60.5102 53.7934H60.5082Z" fill="black"/>
        <path d="M113.319 95.0145C111.249 97.3 109.274 100.097 108.278 103.028C108.16 103.376 108.656 103.539 108.844 103.265C109.726 101.981 110.444 100.603 111.249 99.271C112.051 97.945 112.933 96.6649 113.777 95.3629C113.955 95.0881 113.543 94.7676 113.321 95.0125L113.319 95.0145Z" fill="black"/>
        <path d="M113.199 90.9032C112.161 92.1335 111.101 93.3838 110.384 94.8312C110.268 95.0641 110.571 95.3428 110.765 95.1258C111.851 93.9174 112.627 92.474 113.391 91.0505C113.453 90.935 113.293 90.7937 113.199 90.9032Z" fill="black"/>
        <path d="M31.4358 90.1445C32.7254 93.4155 34.1571 96.6188 35.5787 99.8361C35.6107 99.9077 35.7167 99.9675 35.7946 99.9595C36.7864 99.852 37.7901 99.7883 38.7899 99.846C39.8636 99.9097 40.9013 100.19 41.9651 100.318C42.7608 100.413 43.4747 100.334 44.2465 100.145C44.7783 100.013 45.882 99.9356 46.2759 99.5255C46.6378 99.1492 46.4099 98.7092 46.2499 98.2912C45.888 97.3355 45.5061 96.3879 45.1282 95.4402C44.3624 93.5131 43.5306 91.6158 42.8048 89.6727C42.7149 89.4338 42.5309 89.2745 42.269 89.2665C40.5834 89.2108 38.8858 89.2745 37.2003 89.3243C36.3745 89.3482 35.5507 89.374 34.7249 89.4019C33.7812 89.4338 32.6894 89.7503 31.7717 89.5731C30.9859 89.4218 31.0379 90.6641 31.7717 90.477C32.6974 90.2401 33.7692 90.4969 34.7249 90.4849C35.5507 90.473 36.3745 90.465 37.2003 90.4571C38.8878 90.4431 40.5834 90.4591 42.269 90.3735L41.7891 90.0987C42.9048 92.4539 43.8546 94.8888 44.8443 97.2977C45.0543 97.8094 45.2062 98.4206 45.4941 98.8904C45.7881 98.7789 45.8101 98.761 45.5581 98.8386C45.3862 98.8864 45.2142 98.9342 45.0423 98.982C44.8123 99.0457 44.5824 99.1094 44.3524 99.1731C42.9508 99.5693 41.8391 99.4598 40.4115 99.2886C39.3097 99.1572 38.196 99.205 37.0943 99.3224C36.2865 99.408 35.9846 99.5135 35.6367 98.6953C35.3688 98.0662 35.1028 97.4371 34.8389 96.808C33.8751 94.5065 32.8634 92.2429 31.7937 89.9892C31.6997 89.7901 31.3518 89.9335 31.4338 90.1405L31.4358 90.1445Z" fill="black"/>
        <path d="M57.5672 91.7493C57.4232 91.0844 57.1893 90.4632 56.9133 89.8421C56.8754 89.7545 56.7554 89.6948 56.6614 89.6987C54.8399 89.7903 53.0183 89.5693 51.1928 89.5375C50.2711 89.5215 49.3393 89.4598 48.4195 89.4797C47.9756 89.4897 47.5338 89.5076 47.0899 89.5355C46.8459 89.5494 46.3401 89.7127 46.1081 89.6609C45.3203 89.4877 45.3763 90.7738 46.1081 90.5648C46.3261 90.503 46.698 90.6205 46.9279 90.6285C47.3678 90.6424 47.8097 90.6384 48.2496 90.6344C49.2293 90.6285 50.2111 90.5429 51.1928 90.509C53.0183 90.4473 54.8399 90.2164 56.6614 90.2761L56.3815 90.0631C56.6054 90.7041 56.8614 91.3133 57.2073 91.8987C57.3232 92.0957 57.6132 91.9624 57.5672 91.7473V91.7493Z" fill="black"/>
        <path d="M45.7742 90.2301C46.2801 91.7054 46.836 93.1368 47.4498 94.5722C48.1376 96.1768 48.6875 97.8094 49.2933 99.4439C49.3513 99.5972 49.4973 99.7525 49.6792 99.7365C51.0789 99.6111 52.4825 99.2129 53.8921 99.2547C54.6579 99.2766 55.4077 99.4837 56.1795 99.4737C56.8794 99.4638 57.6372 99.2089 58.323 99.3105C59.0088 99.412 60.5544 100.023 60.5864 98.7829C60.6044 98.0941 60.0785 97.2459 59.8286 96.6188C59.6447 96.151 59.4767 95.6692 59.2688 95.2133C59.0388 94.7116 58.7409 94.389 58.6609 93.8137C58.5669 93.1547 57.3932 93.5748 57.7991 94.176C58.233 94.8151 58.417 96.0116 58.6789 96.7423C58.8069 97.0966 58.9308 97.451 59.0608 97.8034C59.1248 97.9786 59.1908 98.1558 59.2567 98.331C59.2707 98.7092 59.3667 98.7829 59.5467 98.55C59.8226 98.3847 59.7466 98.329 59.3167 98.3847C59.1388 98.3569 58.9628 98.329 58.7849 98.3011C58.5729 98.2732 58.365 98.2454 58.149 98.2553C57.5892 98.2812 57.0413 98.4444 56.4715 98.4644C55.3198 98.5042 54.2041 98.2374 53.0523 98.3588C51.8787 98.4843 50.7369 98.7789 49.5712 98.9541L50.0231 99.1373C48.6975 96.1311 47.5298 93.0512 46.1301 90.0808C46.0362 89.8817 45.6982 90.0211 45.7702 90.2321L45.7742 90.2301Z" fill="black"/>
        <path d="M73.0809 98.4307C72.1651 95.5758 71.1174 92.7786 70.0717 89.9675C70.0357 89.868 69.9437 89.7724 69.8257 89.7824C68.2241 89.9078 66.6446 89.7884 65.083 89.424C64.2852 89.2389 63.4914 89.0358 62.6656 89.1353C61.9738 89.219 60.954 89.3663 60.3322 89.6808C59.9983 89.8501 59.8623 90.0472 59.9023 90.4354C59.9943 91.2954 60.5341 92.263 60.8281 93.0753C61.5579 95.0881 62.3557 97.071 63.0395 99.0997C63.1195 99.3386 63.3274 99.5138 63.5873 99.5138C65.091 99.5237 66.6106 99.4122 68.1122 99.3366C68.852 99.3007 69.5918 99.2629 70.3316 99.2191C71.1194 99.1733 71.9692 98.8508 72.747 98.9902C73.5708 99.1395 73.4388 97.8613 72.747 98.0863C71.9772 98.3352 71.1294 98.1122 70.3316 98.1401C69.5918 98.1659 68.852 98.1878 68.1122 98.2077C66.6106 98.2476 65.085 98.2416 63.5873 98.3849L64.0772 98.6656C63.0655 96.3941 62.2297 94.0448 61.3479 91.7195C61.2459 91.4487 61.178 91.0346 61 90.7997L60.862 90.4314C60.5681 90.5568 60.5401 90.5847 60.7781 90.511C61.23 90.4852 61.7378 90.2542 62.1737 90.1427C63.3854 89.8282 64.3991 90.1447 65.6048 90.292C66.4226 90.3916 67.2604 90.3876 68.0822 90.3637C68.4741 90.3518 68.96 90.2542 69.3499 90.3159C69.7038 90.3717 69.6278 90.3279 69.7757 90.6623C69.9077 90.959 69.9957 91.2835 70.1037 91.5901C70.9214 93.9294 71.7652 96.2408 72.697 98.5362C72.789 98.7632 73.1549 98.6776 73.0769 98.4327L73.0809 98.4307Z" fill="black"/>
        <path d="M44.1007 114.786C44.9865 114.742 45.9102 114.766 46.778 114.945C47.3898 115.07 47.9577 115.241 48.5895 115.16C49.2974 115.066 49.9852 114.758 50.655 114.525C50.9349 114.427 51.4588 114.361 51.6228 114.051C51.8067 113.699 51.4108 113.103 51.2948 112.819C50.9609 112.002 50.637 111.188 50.3311 110.362C49.6713 108.57 48.9954 106.792 48.2876 105.02C48.2156 104.841 48.0637 104.678 47.8517 104.69C44.4786 104.861 41.1055 105.209 37.7323 105.333C37.3984 105.345 37.1305 105.657 37.2285 105.992C37.7003 107.628 38.2622 109.237 38.8301 110.844C39.208 111.915 39.5039 113.079 40.0038 114.099C40.2657 114.634 40.3917 115.12 40.5736 115.656C40.7676 116.225 41.6773 115.98 41.4814 115.407C40.4816 112.468 39.4679 108.841 38.2382 105.715L37.7343 106.374C41.0795 105.938 44.4886 105.845 47.8537 105.59L47.4618 105.367C48.0357 106.645 48.5915 107.933 49.1834 109.203C49.5033 109.888 49.8172 110.575 50.1191 111.268C50.3571 111.817 50.9989 112.88 51.0029 113.48C51.0069 114.363 48.1636 114.62 47.4638 114.491C46.2961 114.274 45.2884 114.25 44.1007 114.395C43.8568 114.425 43.8408 114.799 44.1007 114.788V114.786Z" fill="black"/>
        <path d="M65.3148 112.703C64.335 109.874 63.2353 107.105 62.1296 104.32C62.0736 104.176 61.9636 104.12 61.8117 104.14C59.9922 104.389 58.2506 104.099 56.4411 104.22C54.8775 104.326 53.4378 104.558 51.9382 105.026C51.5523 105.146 51.1824 105.233 51.1164 105.685C51.0145 106.398 51.7203 107.505 51.9742 108.158C52.794 110.272 53.7038 112.353 54.4816 114.481C54.5596 114.696 54.7575 114.895 55.0074 114.879C56.659 114.784 58.3026 114.485 59.9322 114.198C60.8079 114.043 61.6837 113.882 62.5595 113.73C63.4353 113.579 64.2371 113.189 65.1028 113.284C65.7887 113.36 65.6447 112.114 64.9769 112.363C64.2051 112.651 63.3893 112.522 62.5895 112.639C61.7117 112.769 60.8379 112.91 59.9622 113.048C58.2626 113.314 56.563 113.559 54.8615 113.81L55.4773 114.059C54.3356 111.636 53.3839 109.112 52.3841 106.627C52.3441 106.527 51.9702 105.707 51.9722 105.952C51.8003 106.026 51.8143 106.026 52.0162 105.956C52.1782 105.906 52.3421 105.857 52.5041 105.807C53.0379 105.643 53.5698 105.44 54.1137 105.315C54.9575 105.12 55.8472 105.052 56.707 104.959C57.6248 104.859 58.5045 104.909 59.4243 104.873C60.0121 104.851 60.602 104.73 61.1878 104.722C61.8817 104.712 61.8857 105.132 62.1136 105.741C63.0094 108.136 63.9391 110.501 64.9489 112.85C65.0368 113.054 65.3808 112.908 65.3088 112.699L65.3148 112.703Z" fill="black"/>
        <path d="M65.0031 104.188C65.9429 106.987 67.0246 109.721 68.1003 112.472C68.1543 112.608 68.2643 112.671 68.4103 112.647C70.1478 112.351 71.7994 112.619 73.5349 112.532C74.7146 112.472 76.2242 112.305 77.244 111.66C77.5659 111.457 77.6259 111.244 77.5839 110.885C77.4959 110.145 77.046 109.297 76.7921 108.59C76.1603 106.826 75.4384 105.094 74.8706 103.308C74.7986 103.081 74.5887 102.904 74.3407 102.906C72.8891 102.928 71.4355 103.049 69.9899 103.159C69.288 103.213 68.5862 103.268 67.8864 103.326C67.0846 103.392 66.1149 103.762 65.3391 103.627C64.4953 103.479 64.6732 104.771 65.3391 104.531C66.0769 104.264 66.9426 104.469 67.7124 104.423C68.4822 104.377 69.2301 104.337 69.9899 104.296C71.4395 104.218 72.8991 104.164 74.3407 104.001L73.8669 103.73C74.4967 105.186 75.0246 106.679 75.5904 108.158C75.8563 108.853 76.1203 109.55 76.3762 110.25C76.4422 110.43 76.5082 110.609 76.5722 110.79C76.6881 110.959 76.6781 111.011 76.5442 110.943C76.4522 111.067 75.6604 111.26 75.5124 111.313C74.4187 111.7 73.259 111.777 72.1053 111.799C70.7936 111.825 69.574 111.97 68.2783 112.17L68.5882 112.345C67.5545 109.556 66.5347 106.778 65.367 104.043C65.2811 103.84 64.9372 103.985 65.0071 104.194L65.0031 104.188Z" fill="black"/>
        <path d="M56.6072 128.14C55.5595 125.347 54.4078 122.612 53.2461 119.862C53.1881 119.723 53.0781 119.651 52.9242 119.681C51.1346 120.018 49.4131 120.249 47.5935 120.028C45.774 119.807 43.8525 119.918 42.1589 120.796C41.781 120.991 41.6011 121.194 41.6831 121.648C41.845 122.556 42.3549 123.506 42.6088 124.404C43.1987 126.496 43.7245 128.567 44.5063 130.599C44.5803 130.79 44.7663 130.999 44.9982 130.973C46.8877 130.762 48.7433 130.386 50.6008 129.992C51.5665 129.787 52.5303 129.572 53.494 129.365C54.4578 129.158 55.4195 128.676 56.3953 128.724C57.1171 128.76 56.8932 127.543 56.2693 127.802C55.4355 128.148 54.5198 128.067 53.642 128.234C52.6282 128.427 51.6165 128.626 50.6048 128.825C48.6873 129.202 46.7758 129.594 44.8603 129.974L45.4381 130.207C44.6163 128.517 44.2404 126.611 43.7265 124.812C43.4746 123.934 43.2107 123.058 42.8848 122.204C42.6728 121.648 42.4869 121.638 43.0827 121.437C43.4806 121.304 43.8685 121.145 44.2624 121.005C45.728 120.494 47.2276 120.794 48.7452 120.76C50.2629 120.726 51.6445 120.426 53.0581 120.179L52.7362 119.998C53.8679 122.783 54.9996 125.552 56.2433 128.288C56.3353 128.489 56.6812 128.346 56.6032 128.136L56.6072 128.14Z" fill="black"/>
        <path d="M67.8725 124.097C67.6185 123.121 67.2646 122.213 66.8727 121.284C66.4408 120.256 66.1529 119.207 65.793 118.156C65.737 117.993 65.5791 117.84 65.3911 117.851C63.8495 117.957 62.3219 118.208 60.7843 118.333C60.0285 118.395 59.2927 118.445 58.5389 118.556C58.185 118.608 57.8291 118.658 57.4792 118.725C57.1073 118.797 56.6134 119.012 56.2315 118.978C55.5357 118.919 55.7016 120.149 56.3574 119.9C56.7193 119.763 57.2452 119.834 57.6271 119.805C57.983 119.775 58.3389 119.729 58.6948 119.685C59.4466 119.593 60.1765 119.452 60.9203 119.321C62.4379 119.054 63.9815 118.923 65.5031 118.666L65.0332 118.475C65.5151 119.53 66.0349 120.537 66.4208 121.636C66.7388 122.538 67.0787 123.396 67.5106 124.246C67.6125 124.447 67.9245 124.306 67.8705 124.095L67.8725 124.097Z" fill="black"/>
        <path d="M56.0254 119.562C56.4433 120.88 56.9732 122.122 57.5191 123.394C58.1349 124.83 58.5388 126.345 59.1026 127.802C59.1966 128.043 59.4026 128.176 59.6665 128.121C61.8679 127.661 64.0654 127.659 66.2668 127.297C66.7387 127.219 67.2046 127.131 67.6804 127.08C67.9644 127.05 68.4082 127.046 68.6522 126.866C69.196 126.468 68.6422 126.245 68.7142 125.805C68.8901 124.722 67.2405 125.421 67.9264 126.012L68.0323 126.289L68.5942 125.971C67.2845 125.787 65.7389 126.174 64.4413 126.462C63.6135 126.646 62.7757 126.574 61.9379 126.703C61.1001 126.833 60.2563 127.05 59.4206 127.239L59.9384 127.448C59.3246 126.012 58.5568 124.647 57.9929 123.191C57.4951 121.901 57.0032 120.643 56.3813 119.409C56.2814 119.21 55.9555 119.349 56.0214 119.56L56.0254 119.562Z" fill="black"/>
        <path d="M68.4842 118.282C69.4199 120.964 71.1955 123.197 72.2592 125.817C72.3132 125.949 72.4231 126.026 72.5711 125.992C73.4629 125.791 74.3706 125.63 75.2884 125.656C76.0942 125.678 76.884 125.887 77.6938 125.825C78.6295 125.754 79.9912 125.338 80.761 124.826C81.0789 124.615 81.1169 124.406 81.0749 124.047C80.9829 123.273 80.555 122.449 80.2971 121.706C79.6993 119.98 79.0054 118.284 78.4556 116.544C78.3896 116.337 78.1817 116.142 77.9477 116.16C76.4621 116.265 74.9945 116.526 73.5289 116.791C72.7671 116.928 72.0072 117.073 71.2474 117.213C70.4317 117.362 69.5179 117.802 68.6901 117.703C68.0243 117.621 68.1103 118.931 68.928 118.577C69.5979 118.286 70.4956 118.427 71.2175 118.314C72.0352 118.186 72.853 118.055 73.6688 117.922C75.1424 117.683 76.6161 117.446 78.0857 117.189L77.4918 116.948C78.0457 118.226 78.4756 119.56 78.9595 120.866C79.3853 122.013 79.9972 123.233 80.2071 124.438L80.3251 123.992C79.9592 124.328 79.0674 124.561 78.6135 124.732C77.9617 124.977 77.3819 125.049 76.682 125.027C75.1984 124.979 73.8788 125.208 72.4311 125.509L72.7431 125.684C71.7173 123.024 69.9898 120.725 68.8381 118.131C68.7481 117.929 68.4062 118.073 68.4782 118.282H68.4842Z" fill="black"/>
    </g>
    <defs>
        <clipPath id="clip0_18759_82356">
            <rect width="155" height="229" fill="white"/>
        </clipPath>
    </defs>
</svg>
